<svg xmlns="http://www.w3.org/2000/svg" viewBox="0 0 1142 563"><path fill="#aa0" d="M421.9 100.2c-2.5 2-10.9 14.7-10.9 16.4 0 .8-.4 1.2-1 .9-.5-.3-1 .1-1 .9s-.6 2.1-1.3 2.8-1.6 2.1-2 3c-.5 1.5-.3 1.6 1.1.8 3.1-1.8 7.7-3.3 9.4-3.1 1 .1 2.6-.3 3.7-.8 1.4-.8 2.2-.8 2.7 0 .4.7 2.6 1 5.9.6 3.1-.3 5.7-.1 6.3.5 1 1 2.5 1.3 9.7 2.2 1.7.2 4.4 1 6 1.7 1.7.7 3.5 1.4 4 1.5 4.4.7 7.5 1.8 7.5 2.5 0 .5 1.4.9 3 .9 1.7 0 3 .3 3 .8 0 .8 7.1 2.9 13 3.9 1.9.3 4 .9 4.6 1.4s4.4 1.1 8.5 1.4c7.2.5 7.5.5 7.7-1.7.5-5.8-.4-6.8-6.6-6.8-3.1-.1-7.7-.5-10.2-1.1-2.5-.5-6.1-1.3-8.1-1.8-6.1-1.3-30.8-14.1-32.2-16.7-.4-.8-1.2-1.4-1.8-1.4-1.1 0-1.4-.2-7.7-6-3.5-3.2-5.2-4-8.1-4-2 0-4.4.6-5.2 1.2m153.5 2c.3 1.8.8 5.1 1.1 7.3.8 5.2 2.3 13.4 3.1 16.5.3 1.4 1 5.3 1.5 8.8.4 3.5 1 6.6 1.3 7 .5.8 1 4.7 2.2 14.3l.6 5.6 4.6-.4c9.1-.8 9.5-1 8.8-4.6-.3-1.8-.8-6.4-1.2-10.2-.3-3.9-.8-7.7-.9-8.5-.2-.8-.6-3.8-.9-6.5-.3-2.8-.9-7-1.2-9.5s-.7-5.6-.9-7c-1.2-10-.8-14.8 1.3-15.3.9-.3-3.2-.5-9.2-.6l-10.8-.1zm279.2 3.9c-.9 7.4-1.4 10.4-1.6 10.4-.1 0-.3.9-.4 2-.2 1.1-.6 4-1.1 6.5-.4 2.5-.9 5.6-1.2 7-.2 1.4-.8 4.1-1.3 6.1-.6 1.9-1.2 5.9-1.6 8.7l-.5 5.2h11.9l4.3-13.3c2.4-7.2 4.2-13.5 4.1-13.9s.5-2.6 1.4-5c1.9-5.4 4.5-18 3.9-18.7-.3-.2-4.3-.7-8.9-.9l-8.3-.4zM402 129.9c0 .7-.5.9-1.2.5-.6-.4-.8-.3-.5.3.4.6 0 1.3-.8 1.7-.8.3-1.5 1.5-1.5 2.7s-.3 1.9-.6 1.6c-.7-.7-10.4 12.6-10.4 14.2 0 .5-.6 1.2-1.2 1.4q-1.5.6 0 .6c.6.1 1.2.7 1.2 1.5 0 .7.9 2.5 2.1 4 1.1 1.4 1.7 2.6 1.4 2.6-.4 0-.2.6.4 1.4.6.7 1.2 2.5 1.3 4 .1 1.4.5 2.6.9 2.6.3 0 .6.6.6 1.2 0 .7.7 5 1.4 9.6l1.4 8.4 2.9-.6c1.5-.3 3.5-.6 4.2-.6 1 0 1.3-1 .9-3.8-.3-2-.7-6.4-1.1-9.7-.3-3.3-.7-8-1-10.5-1.1-10.5-1.3-28.1-.4-30.6.6-1.5.8-2.9.5-3.2s-.5 0-.5.7m348.2 74.4c.9.7 2 2.5 2.3 4 .4 1.5 1.1 2.7 1.6 2.7s.9.6.9 1.4 1.1 2.8 2.5 4.4 2.8 3.8 3.2 4.9c.5 1.1 2.2 3.7 4 5.9 5.1 6.2 13.3 17.4 13.3 18.2 0 .4 1.4 2 3 3.5 1.7 1.6 3 3.2 3 3.7s1.2 2.2 2.8 3.8c1.5 1.6 4.4 5 6.5 7.6 4.9 5.8 7.3 6 8.2.6.4-2.2 1.2-4 1.8-4 .7 0 .3-.7-.8-1.6-1.1-.8-2-1.8-2-2.2-.1-1.7-3.7-7.2-4.7-7.2-.6 0-.9-.3-.5-.6.5-.5-1.4-4.1-8.1-14.9-3.2-5.2-8.2-15.6-8.2-17 0-.9-.7-3-1.6-4.6-1.5-3-2.5-6.1-2.6-8.7-.1-.9-3.4-1.2-13.2-1.2-10.9.1-12.8.3-11.4 1.3m-394.7 39.9c-5.5 1-10.1 2-10.2 2.1s.5 2.8 1.2 6c.7 3.1 1.1 5.7.8 5.7s-.1.6.5 1.2c.6.7 1.1 1.7 1.1 2.3.3 3.4 1.4 7.5 2.1 7.5.4 0 1.5 2.8 2.5 6.2 2.1 7.6 7.4 19.8 8.6 19.8.5 0 .9.6.9 1.4 0 3.8 2.4 1.9 7.6-5.9 4.5-6.6 6.2-8.5 8.1-8.5 1.2 0 2.3-.3 2.3-.8 0-1.4-3.1-9.4-5-13.2-1-2-1.6-4.1-1.2-4.4.3-.4.2-1-.4-1.4-.9-.7-2.3-5.4-4.3-14.6-.8-3.4-2.5-5.7-4.1-5.5-.3 0-5 1-10.5 2.1M513 275.1c-4.7 1.6-10 3.4-11.8 3.8-1.9.5-4.1 1.6-5 2.4s-3.8 2.2-6.4 3.2-5.3 2.4-5.9 3.1c-.6.8-2 1.4-3 1.4-1.9 0-9.1 4-16.6 9.1-2.4 1.7-6.2 3.6-8.5 4.5-5.6 2-6.8 3.1-6.3 6.2.2 1.5.7 4.8 1 7.4l.6 4.8h6.5c4.8 0 6.6-.4 7-1.5.4-.8 1.2-1.5 2-1.5s1.4-.4 1.4-.9c0-1.4 12.2-13.3 17.5-17.1 2.7-1.9 7.1-4.7 9.9-6.2 2.7-1.5 5.2-3.1 5.5-3.6 1.2-2 18.7-8.2 22.8-8.2.3 0 .2-1.7-.2-3.8-.4-2-.8-4.3-.8-5 0-1.6.1-1.6-9.7 1.9m56.5.3c-1.7 4.1-1.9 6-.5 5.1.5-.3 1.7-.1 2.7.4s3.3 1.5 5.1 2.1c1.7.7 3.2 1.5 3.2 1.9s2 1.5 4.5 2.6 4.5 2.3 4.5 2.7c0 .5.6.8 1.3.8s3.1 1.6 5.2 3.6c9.7 8.7 14.5 13.4 14.5 14.3 0 .6.6 1.4 1.3 1.8s2.6 2.9 4.3 5.5l2.9 4.8 6.5-.3c6.4-.2 6.5-.2 6.8-3.2.3-3.6 0-4-6.3-9-2.7-2.2-5.5-4.5-6.1-5-.7-.6-2.5-1.9-4-3-1.6-1.1-3.9-3-5.2-4.3-1.3-1.2-2.7-2.2-3.2-2.2-.4 0-2.1-1.4-3.7-3-1.5-1.7-4.7-4-7-5.2-2.4-1.2-4.3-2.5-4.3-2.9s-1.3-1-2.9-1.4c-1.6-.3-3.5-1.3-4.2-2.1-.6-.8-1.8-1.4-2.5-1.4-.8 0-1.4-.5-1.4-1 0-.6-.6-1-1.4-1s-3.1-.9-5.1-2.1l-3.5-2.1zm41 75.8c-1.2 5.9-2.5 14.2-2.1 14.5.4.5 3.2-8.5 4.2-13.7.8-3.5-1.3-4.3-2.1-.8m-251.8 5.3c-5 1.7-8.4 4.9-9.8 9.2-2.2 6.8.9 12.7 8.8 16.7 6.7 3.4 8.1 7.5 4 11.4-3 2.8-9.8 2.9-15.2.2-2.1-1.1-4-1.9-4.1-1.7-.1.1-.5 1.9-.9 3.9-.6 3.3-.4 3.8 2.2 5.1 8.4 4.4 21.1 2.5 26-4 2.1-2.8 2.8-4.8 2.9-8.7.1-2.8-.3-5.9-.7-6.8-.5-.9-3.6-3.3-6.9-5.3-7.6-4.6-8.9-6.8-6.3-10.4 1.6-2.1 3-2.7 7.1-2.9 3.2-.2 6.2.3 8.1 1.3 2.8 1.4 3.1 1.4 3.8-.2.5-1 .8-2.9.8-4.3 0-2-.8-2.7-4-3.6-5.3-1.6-11.2-1.6-15.8.1m71.8 2.4c-.8 1.7-1.2 3.6-.9 4.4s.1 1.8-.5 2.2c-.6.3-1.1 1.9-1.1 3.5s-.4 3.2-1 3.5c-.5.3-1 2.2-1 4.1s-.5 3.4-1.1 3.4-.9.6-.6 1.4c.3.7-.1 2.6-.9 4.1-.8 1.6-1.3 3.3-1.1 3.9s-.2 2.3-.9 3.7c-.7 1.5-1.1 2.9-.8 3.1.2.3-.2 1.8-1.1 3.4l-1.5 2.9 14.2.3c7.7.1 14.3.1 14.5-.1.2-.3.7-2.1 1-4.1l.6-3.6h-9.2c-10.1 0-9.9.2-7.7-7l1.3-4.5 8.1-.3c7-.2 8.2-.5 8.6-2.2.4-1.1.9-2.9 1.2-4 .5-1.9.1-2-7.6-2h-8l.6-2.8c2.1-8.4 1.1-7.7 11.3-8l9.2-.3 1.5-3.4c.8-1.9 1.4-3.7 1.4-4s-6.1-.5-13.5-.5h-13.4zm38-1.7c-.4 1.1-6.4 23.4-11.5 42.6l-.9 3.3 4.6-.3 4.6-.3 2.1-8 2.1-8h4.5c2.5 0 4.5.4 4.6 1 0 .5.4 2.6.9 4.5l.9 3.5.7-5c.4-2.8 1-6.6 1.4-8.6l.7-3.6-5.3-.2c-2.9-.1-5.4-.3-5.5-.4-.2-.1.5-3.4 1.5-7.2l1.7-7 5.2-.3c3.2-.2 5.2-.8 5.2-1.5s.3-2.2.6-3.5c.6-2.2.5-2.2-8.5-2.2-6.4 0-9.3.4-9.6 1.2m315 0c-.4 1.6-15.5 88-15.5 89.1 0 2.2 5.9-3.7 10.1-10.1 12-18.3 18.8-49.4 14.5-66.2-2.4-9.3-7.8-16.9-9.1-12.8m-367.2 6.5c.9.2 2.5.2 3.5 0 .9-.3.1-.5-1.8-.5s-2.7.2-1.7.5m191.1 4.8c-.3.8-.4 2-.2 2.7.3.7.7.1 1-1.5.6-2.9.1-3.6-.8-1.2M619 387c0 1.1-.4 2-.9 2-1.1 0-4.8 11.8-6.7 21.6-1.4 7.6-1.8 28.4-.4 28.4.3 0 2.5-11.1 4.9-24.8 2.4-13.6 4.5-25.7 4.8-27 .3-1.2 0-2.2-.6-2.2s-1.1.9-1.1 2m-284.4 11.8c-.8 3.4-.4 4.7 1.1 4.1.4-.2.6-2 .3-3.9l-.6-3.5z"/><path fill="#aa8000" d="M435.2 103c6.3 5.8 6.6 6 7.7 6 .6 0 1.4.6 1.8 1.4 1.4 2.6 26.1 15.4 32.2 16.7 2 .5 5.6 1.3 8.1 1.8 5.6 1.2 16 1.4 16 .2 0-1.6-4-27.6-4.5-28.9-.3-.9-7.9-1.2-33.1-1.2h-32.6zm116.1-2.3c-1.3 3.3-18 65.8-17.7 66.1.1.2 11.8-.9 25.9-2.4l25.7-2.8-.7-5.6c-1-9.5-1.6-13.4-2.1-14.2-.3-.4-.9-3.5-1.3-7-.5-3.5-1.2-7.4-1.5-8.8-.8-3.1-2.3-11.3-3.1-16.5-.3-2.2-.8-5.5-1.1-7.3l-.6-3.2h-11.4c-10 0-11.6.2-12.1 1.7m320.7 6c-.7 3.2-1.9 8-2.8 10.8-.8 2.7-1.6 5.9-1.8 7-.1 1.1-2.1 7.6-4.3 14.4-2.9 8.8-3.8 12.7-3 13.2.7.4 3 1 5.1 1.3 13.7 2.2 22.2 14.6 17.8 26-.9 2.4-.8 2.6 2.2 2.6 1.7 0 6.2-1.1 10-2.5s7.7-2.5 8.7-2.5c1.9 0 10.3-3.8 11.1-5 .8-1.1 8.8-5 10.3-5 .8 0 2.5-.8 3.8-1.9 1.3-1 4.1-2.4 6.2-3 2-.7 3.7-1.6 3.7-2.1 0-.4 1.3-1.3 2.9-1.8 2.8-1 2.8-1.2 2.1-5.4-4-21-20.5-38-45.2-46.4-6.4-2.1-21-5.4-24.3-5.4-.8 0-1.8 2.3-2.5 5.7m-493.3 55.5c-15.3 22.1-22.7 33.1-22.4 33.4.9.9 39.1-7.4 39.5-8.6.3-.7-.2-4.7-.9-8.9s-1.2-7.9-1.1-8.4c.1-.4-.2-.7-.6-.7s-.9-1.2-1-2.6c-.1-1.5-.7-3.3-1.3-4-.6-.8-.8-1.4-.4-1.4.3 0-.3-1.2-1.4-2.6-1.2-1.5-2.1-3.3-2.1-4 0-3.1-2.2-1-8.3 7.8m396 41.4c-.3.4-.2 1.5.4 2.5.5 1.1.7 1.9.4 1.9s.4 1.8 1.5 4c1.1 2.1 2 4.6 2 5.5 0 1.4 5 11.8 8.2 17 6.7 10.8 8.6 14.4 8.1 14.9-.4.3-.1.6.5.6 1 0 4.6 5.5 4.7 7.2 0 .4.9 1.4 2 2.2 1.6 1.3 5.8 1.5 22.6 1.6h20.6l-.8-4.8c-.4-2.6-1.3-6.2-1.8-8.1-.6-1.9-1.5-8.2-2.1-14s-1.5-12.2-2-14.1c-.4-1.9-1.1-6.5-1.5-10.3l-.7-6.7h-30.7c-16.9 0-31.1.3-31.4.6M325.5 250c-25.6 5.4-46.3 9.9-50.2 11.1l-3.3 1.1-.2 7.4c-.1 4.1-.2 8.4-.2 9.6-.1 2.2.2 2.3 12.1 2.8l12.3.5-11.5 16.7c-6.2 9.2-12.1 17.8-13.1 19.2l-1.6 2.6h80.9l7.1-10.6c6.2-9.4 6.9-10.9 5.9-12.8-.7-1.2-1.5-2.3-1.9-2.6-1.3-1-6.6-13.4-8.3-19.8-1-3.4-2.1-6.2-2.5-6.2s-1.1-1.7-1.6-3.8c-.9-4.3-1.1-5.1-1.4-5.5-.1-.1-.4-1.6-.6-3.2-.6-3.4-2.4-10.5-2.7-10.4-.1 0-8.7 1.8-19.2 3.9m242.8 31.2c-.6.7-3.2 9.4-5.8 19.2-2.6 9.9-4.9 18.6-5.2 19.3-.4 1.1 5.2 1.3 30.1 1.3 16.8 0 30.6-.3 30.6-.7 0-1.1-5.4-8.7-6.7-9.6-.7-.4-1.3-1.2-1.3-1.8 0-.9-4.8-5.6-14.5-14.3-2.1-2-4.5-3.6-5.2-3.6s-1.3-.3-1.3-.8c0-.4-2-1.6-4.5-2.7s-4.5-2.2-4.5-2.6-1.5-1.2-3.2-1.9c-1.8-.6-4.1-1.6-5-2.1-2.3-1.2-2.4-1.1-3.5.3m-52.9 2.7c-6.7 1.9-13.6 4.9-14.5 6.3-.3.5-2.8 2.1-5.5 3.6-2.8 1.5-7.2 4.3-9.9 6.2-5.3 3.8-17.5 15.7-17.5 17.1 0 .5-.6.9-1.4.9s-1.6.7-2 1.5c-.5 1.3 3.5 1.5 32.5 1.5h33.1l-.6-2.8c-.3-1.5-1.5-9-2.6-16.7-2.7-18.4-3-19.5-4.3-19.4-.7.1-4 .9-7.3 1.8m331.7 64.6c-15 4.2-28 16.3-37.1 34.5-2.9 5.8-6.4 14.7-6.9 17.5-.1.5-.6 2.6-1.1 4.6-1.7 6.4-2.5 14.2-2.4 24.9 0 9.3.4 11.2 2.9 16.8 4.3 9.7 10.8 14.4 22.1 16.2 12 2 25.6-2.8 36.6-13 6.5-5.9 14.1-16 14.1-18.7 0-.7.4-1.3.9-1.3s.6-.5.3-1c-.3-.6-.1-1 .5-1s.8-.5.5-1c-.3-.6-.2-1 .2-1 .5 0 1-1.1 1.1-2.4.1-1.4 2-12.7 4.3-25.3 2.3-12.5 4.2-24.6 4.2-26.8 0-4.7-3.9-12.8-8-16.7-7-6.6-21.1-9.4-32.2-6.3m13.7 19.1c6.9 4.5 8.4 19.7 3.8 37.9-4.7 18.3-14.6 34.1-24 38-12.7 5.3-20.3-2.6-19.9-20.5.4-18.5 8.2-39.1 18.8-49.7 8.3-8.2 14.7-10 21.3-5.7m-280.1-10.7c-9.8 4.2-18.2 8.3-18.6 9.1-1.2 2.3-3.4 16.1-2.7 16.8.4.3 6.3-1.7 13.1-4.5 6.9-2.9 12.5-5 12.5-4.7 0 .2-5.2 19.7-11.5 43.2s-11.5 43.3-11.5 44c0 1 2.7 1.2 10.7 1l10.7-.3 9.8-36.5c9.8-36.2 10.8-40.1 11.2-43 .1-.9.5-2.1.9-2.8.5-.6 1.1-3.3 1.4-5.9.3-2.7.9-5.3 1.4-5.9s.7-1.3.4-1.6c-.4-.4.7-8.2 2-14.6.5-2.1.3-2.2-5.7-2.1-5.5.1-8.6 1.1-24.1 7.8m-65-.5c-6.8 2.5-10.7 7.8-10.7 14.5 0 3.5 3.9 8.5 8.4 10.8 7.6 3.8 9.5 8.2 5.3 12.1-3 2.8-9.8 2.9-15.2.2-2.1-1.1-4-1.9-4.1-1.7-.1.1-.5 1.9-.9 3.9-.6 3.4-.5 3.8 2.7 5.4 4.8 2.5 15.1 2.5 20.3-.1 5.3-2.7 8.5-7.6 8.5-13.2 0-5.9-1.1-7.7-6.8-10.9-5.6-3.3-9.2-6.3-9.2-7.9 0-.7.9-2.4 2.1-3.9 1.7-2.2 2.8-2.6 7-2.6 2.8 0 6.4.7 8 1.6 3.6 1.8 3.8 1.7 4.6-3 .5-3.2.3-3.7-2.3-4.7-4.7-1.8-13.5-2.1-17.7-.5m-258.7.3c0 .4-1.8 10.9-4 23.3-2.2 12.3-4 22.6-4 22.7 0 .2.6.3 1.3.3s2.7-5.6 5.1-14.8c2.1-8.1 4.2-15.1 4.6-15.5.4-.5 2 2.5 3.7 6.5 4.1 10.1 5.4 10.2 14.9.7 4.1-4.1 7.4-6.8 7.4-6.2 0 .7-1.6 7.1-3.5 14.2s-3.5 13.4-3.5 14c0 .8 1.5 1.1 4.2.9l4.1-.3 6.2-23 6.1-23-4.2-.3c-4.1-.3-4.3-.1-14 9.8l-9.9 10.2-4.1-9.9c-3.8-9.3-4.2-9.8-7.2-10.1-1.8-.2-3.2 0-3.2.5m64.2 3.5c-1.6 2.4-8.6 13-15.5 23.5L293.1 403h4.9c4.8 0 4.9 0 8.2-5.5l3.3-5.4 8.6-.1c9.7 0 9.9.2 9.9 7.1 0 3.6.2 3.9 2.9 3.9 2.5 0 3-.5 3.7-3.8 1-4.9 1-5-1.1-25.5l-1.8-17.7h-3.8c-3.4 0-4.1.5-6.7 4.2m5 17.3.3 7-5.7.3c-3.2.2-5.8 0-5.8-.4 0-1.6 9.4-15.4 10.1-14.7.4.5.9 3.9 1.1 7.8m160.2-17.9c-.5 2.9-.3 3.8 1.5 5 3.6 2.5 2.5 9.7-1.9 11.9-2.2 1.1-2.9 2.5-3.9 7.2-1.5 7.7-1.6 13.2-.2 16.5.9 2.5 1.6 2.8 5.6 2.8 5.2 0 5.1 1.2 1.2-11.4-1.8-5.8-2-7-.8-7.4.8-.3 3.4-2.2 5.7-4.4 7.7-7.1 8-18.4.5-22.2-5-2.6-6.9-2.1-7.7 2"/><path fill="#d4aa00" d="M594.8 99.7c-2.1.5-2.5 5.3-1.3 15.3.2 1.4.6 4.5.9 7s.9 6.7 1.2 9.5c.3 2.7.7 5.7.9 6.5.1.8.6 4.6.9 8.5 1.1 11.3 1.7 13.5 3.5 13.5 2.9 0 27.5-2.1 29.8-2.6 2.5-.5 2.5-.8.8-22.9-.8-10-1.3-20-1.4-28.8L630 99l-16.7.1c-9.3.1-17.6.3-18.5.6m233.1 4c-.2 8.7-.8 16.8-1.4 19.9-.3 1.7-.8 6.9-1 11.5-.3 4.6-.7 10-1.1 12l-.5 3.6 6.2.7c3.4.3 8.6.6 11.5.6 4.5 0 5.4-.3 5.5-1.8.1-3.1.8-7.6 1.9-12.2.6-2.5 1.2-5.4 1.4-6.5 1-5.6 1.9-11.2 2.2-13 .1-1.1.3-2 .4-2 .2 0 .5-2.1 1.5-9.8.6-4.6.5-6.1-.6-6.8-.8-.5-6.9-.9-13.6-.9H828zm-420.4 16.4c-.4.6-.5 1.2-.2 1.5.2.3.7-.2 1-1.1.7-1.7.1-2-.8-.4m12.2 1c-.9.6-2.5.9-3.5.8-1.7-.2-6.2 1.3-9.4 3.1-1.4.8-1.6.6-1.1-.8.7-2.1-1.4.5-4.2 5.3-1.5 2.7-1.5 2.8 0 1 1.7-2 1.7-2 .9.5-1.5 4.3-.8 28.6 1.2 44.5.3 2.2.7 5.3.9 7 .2 1.6.4 3.3.4 3.6.1.7 18.9-2.6 19.8-3.5.4-.3.8-3.2 1-6.4.2-3.1.8-7.1 1.5-8.7 1.5-4 7.1-12.4 8.2-12.5.5 0 1.4-.6 2-1.4 2-2.6 13.1-4.6 19.1-3.5 2.9.5 5.7.9 6.2.8.4-.1 1.5.1 2.3.4 3.6 1.4 11.2 3.7 12.4 3.7.8 0 1.9.6 2.5 1.4.6.7 2.9 1.6 5 2 2.2.3 4.6 1.3 5.5 2.1.8.8 2.1 1.5 2.8 1.5.8 0 3.1.9 5.3 2s4.9 2 6 2h2.1l-1.9-13.3c-1.1-7.2-2-13.3-2.1-13.4s-3.7-.4-8-.8c-4.4-.3-8.4-.9-9-1.4s-2.7-1.1-4.6-1.4c-5.9-1-13-3.1-13-3.9 0-.5-1.3-.8-3-.8-1.6 0-3-.4-3-.9 0-.7-3.1-1.8-7.5-2.5-.5-.1-2.3-.8-4-1.5-1.6-.7-4.3-1.5-6-1.7-7.2-.9-8.7-1.2-9.7-2.2-.6-.6-3-.8-5.9-.5-2.8.3-5.4.1-6.1-.5-.9-.7-1.9-.7-3.1-.1m323.4 85.1c-3 9.6-9.1 34-8.7 34.7.3.5 1.9 1.4 3.6 2.1 1.6.7 3 1.6 3 2.1s.9.9 2 .9 2.3.7 2.6 1.5 2.5 2.7 4.7 4.2c4.8 3.2 6.5 4.7 18.1 15.8 12.4 11.9 19.4 17.8 23.2 19.7l3.4 1.6 1.4-5.1c4.1-14.6 4.1-14.7 2.2-14.7-.8 0-3.2-2.1-5.3-4.6-2.1-2.6-5-6-6.5-7.6-1.6-1.6-2.8-3.3-2.8-3.8s-1.3-2.1-3-3.7c-1.6-1.5-3-3.1-3-3.5 0-.8-8.2-12-13.3-18.2-1.8-2.2-3.5-4.8-4-5.9-.4-1.1-1.8-3.3-3.2-4.9s-2.5-3.6-2.5-4.4-.4-1.4-.9-1.4-1.2-1.2-1.6-2.7c-.8-3.2-3.2-5.2-6.2-5.3-1.6 0-2.4.9-3.2 3.2m-356.6 32.4c-7.1 1.3-14.5 2.6-16.4 2.9-2.3.4-3 .9-2.2 1.5.7.4 1.7 2.5 2.2 4.6 2 9.2 3.4 13.9 4.3 14.6.6.4.7 1 .4 1.4-.4.3.3 2.7 1.6 5.3 1.2 2.5 2.8 6.5 3.6 8.8l1.3 4.3h32.3c29.9 0 32.3.1 32.8 1.7.2 1 1 6.4 1.6 12.1 1 7.9 1.5 10 2.5 9.2.6-.5 3.1-1.6 5.3-2.4 2.3-.9 6.1-2.8 8.5-4.5 7.5-5.1 14.7-9.1 16.6-9.1 1 0 2.4-.6 3-1.4.6-.7 3.3-2.1 5.9-3.1s5.5-2.4 6.4-3.2 3.1-1.9 5-2.4c1.8-.4 7.1-2.2 11.8-3.8l8.5-3-.1-4.8c-.1-2.7-.7-8.1-1.4-12.2l-1.2-7.3-3.1.6c-1.6.3-4.4 1.3-6 2.1-1.7.8-4 1.5-5.2 1.5-1.1 0-2.5.4-3 .9-.6.5-5.7 2.5-11.5 4.4-9.6 3.1-13.7 4.2-30 7.8-3 .7-11.2 1.2-18.2 1.2-11.2-.1-13-.3-15.6-2.2-1.6-1.1-4.1-2.5-5.6-3.1-1.5-.5-3.5-2.3-4.4-4-.9-1.6-2-3-2.4-3-1.3 0-5.6-7.6-7.4-12.9-1.9-6.1-1.1-6-19.9-2.5m189 13.6c-.2.7-1.3 4.9-2.5 9.3l-2.7 9.9c-.3 1-.1 1.6.4 1.3s2.4.3 4.1 1.4c1.8 1 3.9 1.9 4.7 1.9s1.5.4 1.5 1c0 .5.6 1 1.4 1 .7 0 1.9.6 2.5 1.4.7.8 2.6 1.8 4.2 2.1 1.6.4 2.9 1 2.9 1.4s1.9 1.7 4.3 2.9c2.3 1.2 5.5 3.5 7 5.2 1.6 1.6 3.3 3 3.7 3 .5 0 1.9 1 3.2 2.2 1.3 1.3 3.6 3.2 5.1 4.3 1.6 1.1 3.8 2.8 4.9 3.8 1.2.9 4 3.2 6.4 5 2.3 1.7 4.7 4 5.1 5.1.7 1.4 1.9-1.9 4.9-13.1l4-15-3.6-2c-1.9-1.1-5.6-2.6-8.2-3.3s-5.3-1.9-5.9-2.6c-.6-.8-1.8-1.4-2.6-1.4s-2.7-.9-4.2-1.9c-1.5-1.1-3.9-2.3-5.3-2.6-1.5-.4-3.4-1.5-4.4-2.6-.9-1-2.3-1.9-3.1-1.9-.7 0-1.6-.7-1.9-1.5-.4-.8-1.2-1.5-2-1.5s-1.4-.5-1.4-1c0-.6-.6-1-1.3-1s-2.3-.9-3.5-2-2.6-2-3.1-2c-.6 0-3.7-1.8-6.8-4-6.3-4.3-7.2-4.6-7.8-2.8m180 95.4c-2.1.5-13.5 4.6-13.5 4.8 0 0-1.1 6.4-2.5 14-1.4 7.7-2.3 14.1-2.2 14.3.2.1 2.5-2.3 5.2-5.3 12.3-14.3 26.2-12.8 29.5 3.2 3.2 15.2-5.5 44.6-16.9 57.6-8.8 10-19.4 11.6-25.8 3.9l-2.1-2.6-.6 2.5c-1.6 7-3.8 21.2-3.4 21.6.3.2 3.1.9 6.2 1.4 12.3 2 26.3-2.9 36.4-12.7 3.1-3.1 4.9-5 4-4.3-1 .7-1.8.9-1.8.4-.1-2.6 15.3-88.2 16-89.6 1.1-2-2.2-5-8-7.5-3.6-1.5-16.8-2.6-20.5-1.7m-99.6 1.4c-1.5.4-5.4 2.2-8.8 4-11.3 6.1-26.1 24.3-26.6 32.9-.3 6-8.7 52.6-9.5 52.9-1.7.6 2.7 10.7 6.4 15 4.4 4.9 12.3 9.2 17.3 9.2 3.5 0 3.5.1 5.3-10.2l1.2-6.7-4-3.8c-5.1-4.9-6.6-10.1-5.9-21.3 1-18.1 8.4-37.2 18.3-47.7 3.6-3.9 5.6-6.9 6-9.3.3-1.9 1.2-6.3 1.8-9.8.7-3.4 1.2-6.2 1.2-6.1-.1 0-1.3.4-2.7.9m-270.3 9.2c-1.4 5.5-1.1 5.8 5.9 5.8 3.6 0 6.5.3 6.5.6 0 .5-8.2 31.5-9.6 36.6-.5 1.5.2 1.8 4 1.8h4.5l1.4-4.8c.8-2.6 3.1-11.3 5.2-19.4l3.9-14.6 7.1-.7c7.1-.6 7.2-.7 8.3-4.1l1-3.4H405c-18.6 0-18.8 0-19.4 2.2m44.9-1.1c-.4.6-.5 1.2-.2 1.5.2.3.7-.2 1-1.1.7-1.7.1-2-.8-.4m-52.4 3.5c0 1.1.3 1.4.6.6.3-.7.2-1.6-.1-1.9-.3-.4-.6.2-.5 1.3m50.5 4.1c-.6 1.4-.5 1.5.5.6.7-.7 1-1.5.7-1.8s-.9.2-1.2 1.2m-1.9 6.2c-.4 1.7-.3 2.1.5 1.3.5-.5.8-1.6.6-2.3-.3-.8-.7-.3-1.1 1m-1.5 7.1c0 1.4.2 1.9.5 1.2.2-.6.2-1.8 0-2.5-.3-.6-.5-.1-.5 1.3m-1.9 5.5c-.3.9-.3 1.8-.1 2.1.3.3.8-.4 1.1-1.6.6-2.3-.1-2.7-1-.5m-1.8 7.6c-.4.6-.5 1.2-.2 1.5.2.3.7-.2 1-1.1.7-1.7.1-2-.8-.4m-1.9 6.6c-.6 1.4-.5 1.5.5.6.7-.7 1-1.5.7-1.8s-.9.2-1.2 1.2"/><path fill="#d4aa55" d="M630.5 115.2c.4 9 .8 18.1 1 20.3s.6 7.8.9 12.4.8 8.6 1 8.9c.3.2 11.2-.3 24.3-1.2 35.8-2.5 57.5-3.6 70.3-3.6 6.3 0 12-.4 12.6-.8 1.3-.9 14.6-50.1 13.8-51.3-.3-.5-28.4-.9-62.6-.9h-62zm143-15c1.5 3.9 3.2 24.1 3.1 36.5l-.1 14.3h47.3l.6-3.3c.3-1.7.8-7.7 1.1-13.1s.8-10.2 1-10.6.7-6.2 1-12.8l.7-12.2h-27.6c-21.6 0-27.4.3-27.1 1.2m-329.4 50.6c-3.6 1-6.6 2.3-6.9 3-.2.6-.9 1.2-1.5 1.2-1.4.1-6.9 8.1-8.5 12.5-1.2 3.1-2.3 15.5-1.5 15.5.3 0 7.1-1.1 15.2-2.5 8-1.3 25.6-4 39.1-6 13.5-1.9 25.1-3.7 25.8-4 .6-.2 1.2-1.4 1.2-2.5 0-1.4-.7-2-2.3-2-1.2 0-4-.9-6.2-2s-4.5-2-5.3-2c-.7 0-2-.7-2.8-1.5-.9-.8-3.3-1.8-5.5-2.1-2.1-.4-4.4-1.3-5-2-.6-.8-1.7-1.4-2.5-1.4-1.1 0-7.5-1.9-12.4-3.7-.8-.3-3.2-.6-5.2-.8-2.1-.2-5-.6-6.5-.9-1.6-.2-5.7.3-9.2 1.2m199.4 56.3c-16.9 1.4-56.9 5-57.1 5.2-.4.4-10.4 38-10.2 38.1s3.1 2.1 6.6 4.4c3.4 2.3 6.7 4.2 7.3 4.2.5 0 1.9.9 3.1 2s2.8 2 3.5 2 1.3.4 1.3 1c0 .5.6 1 1.4 1s1.6.7 2 1.5c.3.8 1.2 1.5 1.9 1.5.8 0 2.2.9 3.1 1.9 1 1.1 2.9 2.2 4.4 2.6 1.4.3 3.8 1.5 5.3 2.6 1.5 1 3.4 1.9 4.2 1.9s2 .6 2.6 1.4c.6.7 3.3 1.9 5.9 2.6s6.2 2.2 8 3.3c1.8 1 3.5 1.8 3.7 1.6s4.9-17.5 10.5-38.4 10.4-38.8 10.6-39.8c.6-2 0-2-18.1-.6M508 220.7c-1.4.2-12.8 1.7-25.5 3.4-12.6 1.6-34.7 4.8-49 7-14.3 2.3-26.6 4.1-27.3 4.2-2.6.1 2.6 14.2 6.6 17.7.9.8 2.5 2.8 3.5 4.3s3 3.2 4.4 3.8c1.4.5 3.9 1.9 5.5 3 2.6 1.9 4.4 2.1 15.6 2.2 7 0 15.2-.5 18.2-1.2 16.3-3.6 20.4-4.7 30-7.8 5.8-1.9 10.9-3.9 11.4-4.4.6-.5 2.2-.9 3.7-.9s3-.4 3.3-.9c.4-.5 2.9-1.5 5.6-2.2 4.7-1.2 5-1.5 4.6-3.8-.3-1.5-1.3-7.7-2.2-13.9-1.8-12.2-1.4-11.7-8.4-10.5m225.5 21.6c-2.1 5.8-10.3 38.3-9.8 39 .3.5 0 1.3-.7 1.7-.9.6-.4 1.3 1.8 2.4 1.7.9 3.6 1.6 4.2 1.6 2.9 0 26 20.7 26 23.2 0 .5.8 1.6 1.8 2.6.9 1 2.5 3.2 3.4 4.8l1.7 2.9 12.3.3 12.3.2 3.8-14.2c4.9-18.3 4.9-17.9 1-19.8-3.5-1.7-10.6-7.7-22.9-19.5-11.6-11.1-13.3-12.6-18.1-15.8-2.2-1.5-4.4-3.4-4.7-4.2s-1.5-1.5-2.6-1.5-2-.4-2-.8c0-.5-1.6-1.6-3.5-2.5-2.7-1.3-3.7-1.4-4-.4M661 347.8c-2.1.7-2.7 1.7-3.7 7.2-.7 3.6-1.6 8.2-2.1 10.2l-.9 3.7 2.6-1.3c7.8-4 14.6-2.2 18.4 4.8 1.9 3.5 2.2 5.6 2.1 14.6-.2 28.4-16.9 58-32.7 58h-3.4l-1.6 9.2c-.9 5-1.5 9.3-1.3 9.5s3.4-.1 7.2-.7c23-3.5 41.8-24.4 50-55.5 2.3-8.4 2.7-12.3 2.8-24 .1-13.1-.1-14.4-2.5-19.5-3.1-6.7-7.9-11.7-13.7-14.2-4.7-2.1-17-3.2-21.2-2m78 7.1c-13.6 8.7-24.5 24.9-30.4 45.1-6.9 24.1-5.3 45 4.2 54.7 3.8 3.8 8.8 7 9.7 6.2.8-.8 4.6-22.3 4.3-24.4-.1-1.1-.2-7.4-.1-14 .1-9.9.5-13.6 2.7-21 1.5-5 2.8-9.5 3-10 .1-.6 1.3-3 2.6-5.5s2.3-4.8 2.2-5.2c-.1-.3.9-6.6 2.2-14 1.3-7.3 2.3-13.4 2.3-13.4-.1-.1-1.3.6-2.7 1.5"/><path fill="#d4d455" d="M765.1 124.3c-3.5 13.3-6.6 24.8-6.9 25.5-.3 1 1.6 1.2 8.9 1l9.4-.3.1-14.2c0-7.8-.5-18.6-1.2-24s-1.3-10.4-1.4-11.1c0-.6-.6-1.2-1.2-1.2-.8 0-3.7 8.9-7.7 24.3M721 288.2c-.6 2.4-1.7 6.5-2.5 9.3-1.8 6.7-2.5 11.5-1.6 11.5 1.1 0 11.1 9.9 11.1 11 0 .6 6.7 1 17.1 1h17l-1.8-3.2c-1-1.7-2.6-4-3.5-5-1-1-1.8-2.1-1.8-2.6 0-2.5-23.1-23.2-26-23.2-.6 0-2.4-.7-4-1.5l-2.9-1.5z"/><path fill="#a50" d="M941.8 158.2c-1.6.6-2.8 1.3-2.8 1.8s-1.7 1.4-3.7 2.1c-2.1.6-4.9 2-6.2 3-1.3 1.1-3 1.9-3.8 1.9-1.5 0-9.5 3.9-10.3 5-.8 1.2-9.2 5-11.1 5-1 0-4.9 1.1-8.7 2.5s-8.3 2.5-10 2.5c-2.5 0-3.5.6-4.8 3.2-.9 1.8-3.5 5-5.8 7.1-7.8 7.2-18.1 10.7-31.3 10.7h-6.5l.7 6.7c.4 3.8 1.1 8.4 1.5 10.3.5 1.9 1.4 8.2 2 14 .5 5.7 1.7 12.9 2.5 16 .8 3 1.6 6.6 1.7 8 .3 2.3.6 2.5 5.3 2.2 2.8-.2 8.8-1 13.5-1.8 49.2-8.7 78.6-39.2 81.5-84.3.4-5.3.3-11.2-.2-13.2-.8-3.4-1-3.5-3.5-2.7M247 267.9c-12.4 3.2-25.2 6.6-28.5 7.6s-6.3 1.8-6.7 1.7c-.5-.1-.6.8-.4 2.1l.3 2.2 29.9.3 29.9.2.3-10c.3-7.9.1-10-1-9.9-.7 0-11.4 2.7-23.8 5.8m5.7 98.8c-1.5 6-4.3 16.4-6.2 23.3s-3.5 12.6-3.5 12.7c0 .2 1.4.3 3 .3 1.7 0 3-.1 3-.3 0-.1 1.8-10.4 4-22.7 4.4-25.1 4.3-24 3.2-24-.4 0-2 4.8-3.5 10.7m306.3 2.5c-.6 2.4-1.8 6.7-2.7 9.6-.8 3-1.3 5.5-1.1 5.7 1 1 4.6-.8 4.1-2-.4-1.2.3-6.3 2.3-15.3.8-4.1-1.5-2.3-2.6 2m328 6.1c0 1-7.9 45.7-8.4 48.1-1.1 4.3 1.6-.5 3.9-7 4.7-13.6 7.9-36.2 5.7-40-.6-1-1.2-1.5-1.2-1.1"/><path fill="#805500" d="m203 279.9-5.5 1.9 7.2.1c6.2.1 7.1-.1 6.9-1.7-.4-2.3-2.2-2.4-8.6-.3"/><path fill="#ffd455" d="m713.8 315-1.6 6h7.9c4.4 0 7.9-.4 7.9-1 0-1.3-10.1-11-11.5-11-.6 0-1.8 2.7-2.7 6"/></svg>