<svg xmlns="http://www.w3.org/2000/svg" viewBox="0 0 188 83"><path fill="gray" d="M41.6 17c-4.4 1.4-6.5 3.8-7.2 8.5-.7 5 .8 10.5 3.4 12.1 2.9 1.9 9.5 2.4 13.2 1.1 3.9-1.4 6-4.6 6-9.5V26h-5.5c-4.8 0-5.5.2-5.5 2 0 1.6.7 2 3 2 3.1 0 3.9 1.7 1.8 3.8-1.7 1.7-8.4 1.5-10.2-.4-.9-.9-1.6-3.2-1.6-5.4s.7-4.5 1.6-5.4c1.8-1.8 7.6-2.1 10.6-.5 2 1.1 3.7 0 3.8-2.3 0-2.3-9-4.2-13.4-2.8M61 28v11h2.5c2.3 0 2.5-.4 2.5-4.1 0-3.6.2-4 2.3-3.7 1.3.2 3 1.7 4.2 4 1.6 3 2.6 3.8 4.8 3.8h2.8l-2.2-3.9-2.1-3.9 2.2-3c1.7-2.3 2-3.7 1.5-6.1-.9-4.2-3-5.1-11.4-5.1H61zm13.5-4c0 2.2-.5 2.5-4.2 2.8-4.2.3-4.3.2-4.3-2.8s.1-3.1 4.3-2.8c3.7.3 4.2.6 4.2 2.8M87 26.7c-1.8 5.4-3.5 10.4-3.8 11-.2.8.5 1.3 2.1 1.3s2.6-.7 3-2c.4-1.7 1.4-2 5.6-2 4.4 0 5.1.3 5.1 2 0 1.5.7 2 2.5 2 1.4 0 2.5-.4 2.5-.8s-1.5-5.3-3.3-10.7l-3.4-10-3.5-.3-3.6-.3zm8.8 0c1.2 3.6.8 4.3-2.5 4.3-2.6 0-2.8-1.2-1.2-5.9 1.3-3.6 2.1-3.2 3.7 1.6M109 28c0 10.3.1 11 2 11 1.8 0 2-.7 2-6.5 0-3.6.3-6.5.8-6.5.4.1 2.8 3 5.5 6.5 3 4.2 5.5 6.5 6.7 6.5 1.9 0 2-.7 2-11s-.1-11-2-11c-1.8 0-2 .7-2 6.5 0 3.6-.3 6.5-.7 6.5-.5-.1-2.9-3-5.6-6.5-3-4.2-5.5-6.5-6.7-6.5-1.9 0-2 .7-2 11m25 0v11h6.5c6.9 0 11.8-1.7 12.9-4.5.3-.9.6-4.1.6-7.1 0-4.5-.4-5.9-2.5-7.9-2.1-2.2-3.3-2.5-10-2.5H134zm14.1-5.4c.7.9 1.4 3.3 1.4 5.4 0 5.2-1.8 7-7.1 7H138V21h4.4c2.8 0 4.8.6 5.7 1.6m-110.9 22C32.2 48.1 35.5 56 42 56c1.5 0 3.5.6 4.5 1.4 1.7 1.2 1.7 1.6.5 3.1-1.4 1.7-6 1.7-10.1 0-1-.4-1.9 0-2.3 1-.9 2.5 0 3.3 4.9 4.1 8.1 1.2 12.5-1.3 12.5-7 0-4-1.2-5.2-6.9-6.5-4.9-1.1-6.7-2.4-5.6-4.1.5-.8 2.5-1.1 5.7-.8 3.8.4 5.1.2 5.5-.9.3-.8 0-1.9-.8-2.4-2.3-1.4-10.3-1-12.7.7M57 54.5v11.6l7.3-.3c6.4-.3 7.2-.5 7.2-2.3 0-1.7-.8-2-5.2-2.3l-5.3-.3v-9c0-8.2-.1-8.9-2-8.9s-2 .7-2 11.5M81.5 44c-.4.6-2.2 5.6-4 11.1-2.8 8.3-3.2 10.1-1.9 10.6 1.7.6 4.4-1.4 4.4-3.3 0-1 1.4-1.4 5-1.4s5 .4 5 1.4c0 1.9 2.7 3.9 4.4 3.3 1.2-.5.8-2.6-2.2-11.6C88.6 43 88.5 43 85.3 43c-1.7 0-3.5.5-3.8 1m5.3 7.9c1.6 5.2 1.6 5.1-1.9 5.1-2.4 0-2.9-.4-2.5-1.8.3-.9.8-2.9 1.2-4.5.9-3.7 1.9-3.4 3.2 1.2m13.4 2.3c.2 9.3.6 11.3 1.8 11.3 1.1 0 1.6-1.7 2-7 .6-7.7.2-7.9 4.9 2.8 2.8 6.5 4.7 6 8.8-2.3l3.1-6.5.4 6.5c.3 5.7.5 6.5 2.3 6.5 1.9 0 2-.8 2.3-11.3l.3-11.2h-3.4c-2.9 0-3.5.4-4.6 3.7-.8 2.1-2.3 5.8-3.3 8.3l-1.9 4.5-3.4-8c-3-7.4-3.5-8-6.4-8.3l-3.2-.3z"/></svg>