<svg xmlns="http://www.w3.org/2000/svg" viewBox="0 0 177 204"><path d="M75.7 80.7c-.4.7 2.8 9.6 6.9 19.1l1.6 3.7 1.8-4c1.1-2.3 1.5-4.2.9-4.5-.5-.4-.1-1.5 1-2.6 1.6-1.7 6.1-10.7 6.1-12.1 0-.2-1-.3-2.2-.1-1.6.2-2.5 1.3-3.3 4.3-.8 3.2-1.4 4-3.3 4-2.5-.1-5.1-3.5-5.2-6.8 0-1.7-3.4-2.5-4.3-1M99 92v12h6.9c6.2 0 7-.2 7.6-2.1.9-2.8.3-3.2-2.9-1.9-1.5.5-3.8.7-5.2.4-1.9-.5-2.4-1.3-2.4-4 0-3.1.3-3.4 3-3.4 2.3 0 3-.4 3-2s-.7-2-3-2c-2.5 0-3-.4-3-2.5 0-2.3.4-2.5 4.1-2.5 3.3 0 4-.3 3.7-1.8-.2-1.3-1.5-1.8-6.1-2l-5.7-.3zm20-11.7c-.3.3-.4 5.7-.2 12.1.3 10.6.5 11.6 2.2 11.6 1.6 0 1.9-.9 2.2-6.3l.3-6.2 3.2 4.7c4.7 6.7 6.1 7.8 9.6 7.8h3.2l-2.7-2.3c-1.6-1.2-3.9-3.7-5.3-5.6l-2.4-3.4 2.4-1.9c2.9-2.3 3.2-5.8.7-8.1-1.7-1.6-12.2-3.4-13.2-2.4m8.1 3.7c3.4 1.9 1.8 7-2.3 7-1.4 0-1.8-.8-1.8-3.3 0-4.7.8-5.4 4.1-3.7M37 92.5V104h6.5c5.5 0 6.6-.3 7.5-2.1 1.5-2.7 1-3.1-2.8-2-1.7.5-4 .7-5.2.4-1.8-.5-2-1.3-2-9.9 0-8.7-.1-9.4-2-9.4s-2 .7-2 11.5m26.9-8.9c-.8 2.2-.4 4 2.1 10 1.6 4 3 8 3 8.8 0 1.1.9 1.6 3 1.6h3l-1.9-4.8C67.6 85.3 65.7 81 65.4 81s-.9 1.2-1.5 2.6M57.7 99l-2.4 5h2.8c1.6 0 2.9-.5 2.9-1 0-.6.9-2.9 1.9-5l1.9-4h-2.4c-1.8 0-2.8 1.1-4.7 5m.6 10.5c-5.6 4-4.6 14.7 1.7 18 3.8 2 9.9 1.6 11.4-.7 1.5-2.4.4-3-3.3-1.7-4.6 1.6-8.5-1.2-8.9-6.5-.5-5.5 2-7.9 7.5-7.3 3.7.4 4.3.2 4.3-1.4s-.8-1.9-5.3-1.9c-3.1 0-6.1.6-7.4 1.5M76 116c0 7.4.2 8.3 2.6 10.7 2.1 2.1 3.1 2.4 6.2 1.9 2-.3 4.7-.6 6-.6 2.1 0 2.2-.3 2.2-10s-.1-10-2.2-10c-2.2 0-2.3.3-2 7.9.3 7.3.2 8-1.9 9.1-1.6.9-2.8.9-4.6.1-2.3-1.1-2.4-1.5-2.1-9.1.3-7.7.2-8-1.9-8-2.2 0-2.3.4-2.3 8m22.8 2c.3 9.1.5 10 2.3 10 1.6 0 1.9-.7 1.9-4.4 0-4.4 0-4.4 3.6-4.4 4.3 0 6.7-2 6.7-5.8s-2.7-5.4-9.2-5.4h-5.6zm9.9-5.4c.8 2.2-.9 4.8-3.6 5.2-1.8.3-2.1-.1-2.1-3.2 0-3.2.3-3.6 2.5-3.6 1.5 0 2.8.7 3.2 1.6"/></svg>