<svg version="1.1" id="Layer_1" xmlns="http://www.w3.org/2000/svg" xmlns:xlink="http://www.w3.org/1999/xlink" x="0px" y="0px"
	 width="100%" viewBox="0 0 761 455" enable-background="new 0 0 761 455" xml:space="preserve">
<path fill="#FFFFFF" opacity="1.000000" stroke="none" 
	d="
M509.000000,456.000000 
	C339.333344,456.000000 170.166672,456.000000 1.000000,456.000000 
	C1.000000,304.333344 1.000000,152.666672 1.000000,1.000000 
	C254.666672,1.000000 508.333344,1.000000 762.000000,1.000000 
	C762.000000,152.666672 762.000000,304.333344 762.000000,456.000000 
	C677.833313,456.000000 593.666687,456.000000 509.000000,456.000000 
M620.500000,174.000000 
	C639.002930,174.667465 657.685120,173.975327 675.958191,176.385361 
	C694.176941,178.788254 698.628357,194.679810 690.234680,208.045898 
	C682.695740,220.050919 670.541382,224.800430 656.856873,224.912811 
	C624.033203,225.182404 591.205688,225.022141 558.379883,224.958710 
	C555.703430,224.953537 553.798523,225.168961 552.968140,228.320541 
	C547.169983,250.326096 541.214844,272.290253 535.335754,294.274536 
	C530.932678,310.739014 526.567932,327.213745 522.102112,344.000000 
	C545.381348,344.000000 568.366150,343.845642 591.345642,344.123108 
	C596.264771,344.182495 597.988647,342.747101 599.162659,337.912933 
	C603.533936,319.913391 608.551270,302.070709 613.637817,283.000549 
	C628.305908,283.000549 643.053101,283.270782 657.786438,282.934540 
	C677.764343,282.478577 696.686462,277.474945 713.979858,267.417694 
	C731.415405,257.277863 744.346069,243.093628 751.107056,223.672943 
	C755.841980,210.071960 757.785217,196.337540 756.127014,181.907608 
	C754.687256,169.378204 750.136230,158.330963 742.197632,148.840073 
	C731.756836,136.357742 717.407715,130.272232 702.133606,125.989548 
	C685.981628,121.460709 669.295898,121.936287 652.822388,121.197441 
	C633.864807,120.347176 614.839783,120.983322 595.844055,121.012291 
	C591.358154,121.019127 585.621277,119.534729 582.736511,121.729164 
	C579.816895,123.950165 579.596619,129.847733 578.409058,134.193619 
	C574.839783,147.255280 571.375366,160.345596 567.715820,174.000000 
	C585.276733,174.000000 602.388367,174.000000 620.500000,174.000000 
M290.684570,246.006348 
	C287.764465,246.353836 284.829742,246.608307 281.926788,247.064957 
	C269.565247,249.009583 257.222076,251.071945 244.855316,252.982010 
	C229.263000,255.390274 213.601669,257.392334 198.065994,260.116455 
	C179.075607,263.446259 160.151321,267.179871 141.259964,271.039856 
	C121.766518,275.022888 102.275803,279.066040 82.914604,283.636627 
	C62.649479,288.420563 42.522972,293.798523 22.373562,299.061157 
	C17.004349,300.463501 11.773233,302.394592 6.478718,304.082916 
	C6.577940,304.498444 6.677161,304.913940 6.776383,305.329468 
	C39.464180,305.329468 72.151978,305.329468 105.443474,305.329468 
	C96.617874,318.374542 88.171021,330.859772 79.281044,344.000000 
	C106.007538,344.000000 131.646866,343.885651 157.282578,344.137329 
	C160.681824,344.170715 162.384155,342.773712 163.910751,340.456635 
	C170.946945,329.777191 177.809677,318.980804 185.022659,308.423157 
	C186.156448,306.763641 188.759995,305.168243 190.702377,305.145874 
	C211.189728,304.910187 231.681351,305.073578 252.170380,304.927917 
	C255.603241,304.903503 256.703461,306.234161 257.043243,309.388336 
	C258.278992,320.860291 259.698914,332.312408 261.049683,343.774323 
	C287.975464,343.774323 314.407104,343.774323 340.965851,343.774323 
	C335.867554,309.793549 330.805237,276.052399 325.713196,242.113251 
	C323.915192,242.113251 322.265442,241.937592 320.664215,242.142059 
	C310.968201,243.380051 301.283203,244.704865 290.684570,246.006348 
M400.500000,121.000000 
	C387.525513,121.000000 374.551056,121.000000 361.543335,121.000000 
	C355.380341,144.021515 349.274841,166.828278 342.987885,190.312881 
	C348.881561,189.502441 354.326843,188.595428 359.807495,188.033447 
	C370.723877,186.914108 381.667572,186.061783 392.585449,184.955750 
	C404.780884,183.720306 416.947906,182.196167 429.149994,181.036713 
	C441.398682,179.872833 453.663971,178.823181 465.942413,178.047119 
	C484.359558,176.883118 502.791718,175.944305 521.223206,175.023865 
	C530.633850,174.553909 540.063354,174.437683 549.466797,173.870819 
	C550.697815,173.796600 552.519104,172.193497 552.889648,170.948227 
	C555.970032,160.594788 558.830566,150.174362 561.639526,139.742401 
	C563.268250,133.693497 564.679871,127.586121 566.314575,121.000000 
	C511.022003,121.000000 456.261017,121.000000 400.500000,121.000000 
M166.919220,216.531754 
	C164.884842,220.216339 167.246964,218.820953 169.047363,218.466858 
	C185.267838,215.276535 201.489700,212.091156 217.732574,209.017548 
	C228.731674,206.936188 239.737503,204.862717 250.790833,203.103027 
	C262.691589,201.208435 274.649933,199.674072 286.585785,198.001434 
	C296.265778,196.644943 305.968018,195.425598 315.604370,193.811066 
	C316.596893,193.644791 317.952545,191.142471 317.860535,189.812607 
	C317.524200,184.951324 316.717651,180.116272 315.959473,175.291580 
	C313.135590,157.321091 310.260559,139.358627 307.342468,121.001450 
	C283.084320,121.001450 258.624237,120.971657 234.164963,121.099442 
	C233.072601,121.105148 231.670166,122.319733 230.947845,123.347656 
	C222.559631,135.284836 214.256088,147.281754 205.966446,159.287933 
	C192.973770,178.105667 180.008957,196.942627 166.919220,216.531754 
M412.500000,344.000000 
	C421.165619,343.999969 429.831268,343.992676 438.496887,344.004974 
	C440.710785,344.008118 442.312042,344.060669 443.113525,340.980743 
	C450.756195,311.611389 458.659393,282.309814 466.504730,252.993286 
	C468.695251,244.807617 470.941895,236.636948 473.367310,227.706436 
	C447.237183,229.833389 421.907410,231.895218 396.400940,233.971405 
	C386.559845,270.640106 376.766296,307.131714 366.871643,344.000000 
	C382.192535,344.000000 396.846283,344.000000 412.500000,344.000000 
M367.982880,92.667046 
	C375.677582,63.915920 383.372284,35.164795 391.121155,6.211262 
	C379.450897,6.211262 368.334869,6.211262 357.475250,6.211262 
	C352.085083,26.318415 346.764984,46.164188 341.175293,67.015503 
	C339.842285,65.014534 338.829437,63.953197 338.341675,62.689240 
	C334.511963,52.765472 330.648529,42.851154 327.052582,32.841549 
	C320.889465,15.685828 308.765381,6.445919 289.867615,6.039647 
	C279.542969,5.817683 269.209625,5.989459 258.880280,6.014498 
	C257.702820,6.017352 256.525818,6.219722 254.696930,6.390396 
	C261.120087,11.710006 264.517731,17.312561 262.337738,25.331696 
	C256.162262,48.048275 250.203629,70.823792 244.100662,93.797913 
	C255.339859,93.797913 266.447021,93.797913 277.708374,93.797913 
	C283.085297,73.891731 288.452545,54.021385 293.819794,34.151039 
	C294.284851,34.169102 294.749908,34.187164 295.214935,34.205227 
	C295.822937,35.827648 296.385162,37.468960 297.046173,39.069485 
	C302.031921,51.142166 306.726105,63.349205 312.159027,75.217804 
	C315.167603,81.790298 320.095947,86.923103 327.025177,90.112610 
	C340.290314,96.218513 354.140320,93.656204 367.982880,92.667046 
M661.982544,71.146561 
	C665.198059,62.600780 663.139526,54.441422 656.354675,48.845158 
	C649.354431,43.071301 640.786316,41.334240 632.263733,41.203407 
	C621.288269,41.034908 610.163574,41.525143 599.336426,43.220856 
	C587.715393,45.040897 577.201843,50.195343 570.816101,60.819511 
	C564.404541,71.486687 565.774109,83.855522 578.142700,89.410774 
	C584.223450,92.141899 590.989685,94.351257 597.570190,94.751991 
	C610.490356,95.538795 623.583801,95.890785 636.244263,91.985664 
	C647.286438,88.579742 656.844238,83.238739 661.982544,71.146561 
M497.994110,389.457947 
	C495.102051,399.973175 492.209961,410.488373 489.317902,421.003601 
	C488.819153,421.041992 488.320374,421.080414 487.821625,421.118805 
	C481.028564,404.475555 474.235535,387.832275 467.421875,371.138550 
	C463.100739,371.138550 458.796661,371.138550 454.394165,371.138550 
	C447.467072,396.995483 440.568146,422.747223 433.535675,448.997375 
	C438.261902,448.997375 442.090271,449.174530 445.883148,448.885681 
	C446.970184,448.802856 448.595032,447.554352 448.885559,446.531403 
	C451.398621,437.682892 453.628235,428.754456 456.012787,419.868744 
	C457.880035,412.910675 459.847565,405.979584 462.023010,398.125000 
	C463.199371,399.991211 463.936310,400.851105 464.338806,401.846313 
	C468.931946,413.203125 473.655029,424.512268 477.982697,435.970367 
	C483.071564,449.443848 482.917694,449.501831 494.015106,449.000580 
	C494.181427,448.993073 494.409241,449.070160 494.505737,448.987732 
	C495.681610,447.982574 497.534271,447.152985 497.890350,445.901947 
	C500.894836,435.345856 503.599213,424.704773 506.443695,414.102661 
	C510.267151,399.851807 514.135132,385.612915 518.083557,371.000275 
	C513.698547,371.000275 509.845795,370.716248 506.073914,371.144501 
	C504.629852,371.308441 502.644470,372.840363 502.158722,374.197357 
	C500.476654,378.896515 499.345612,383.792877 497.994110,389.457947 
M479.943207,73.309349 
	C481.393311,67.564621 482.843445,61.819897 484.327209,55.941864 
	C489.989410,55.941864 495.294983,55.941864 500.749237,55.941864 
	C501.968170,51.335281 503.137421,46.916504 504.456116,41.932888 
	C498.539703,41.932888 493.495026,41.932888 488.352966,41.932888 
	C489.698792,36.486668 490.946503,31.437450 492.257050,26.133930 
	C481.419922,26.133930 471.453918,26.133930 461.209595,26.133930 
	C460.395264,29.632292 459.569397,33.061726 458.802979,36.504395 
	C457.929108,40.429546 456.137543,42.842773 451.498749,42.076611 
	C448.916260,41.650070 446.205505,42.000000 443.278046,42.000000 
	C442.041351,46.583256 440.846466,51.011639 439.459625,56.151352 
	C444.481140,56.151352 448.692780,56.151352 453.213837,56.151352 
	C452.361145,59.550262 451.688568,62.371040 450.941284,65.171890 
	C450.153534,68.124481 449.269165,71.051201 448.471252,74.001190 
	C445.741089,84.095009 449.626465,90.707085 459.771179,93.004150 
	C469.940674,95.306816 480.180634,95.810234 490.761505,93.438538 
	C491.816986,89.687416 492.974365,85.574280 494.261627,80.999519 
	C490.734436,80.999519 487.753052,81.086845 484.778656,80.979286 
	C480.183105,80.813118 478.879608,79.029488 479.943207,73.309349 
M545.007446,75.503540 
	C546.759094,69.019432 548.510803,62.535316 550.294006,55.934612 
	C555.995300,55.934612 561.294006,55.934612 566.716064,55.934612 
	C567.884888,51.300575 569.003906,46.864059 570.238159,41.970551 
	C564.470886,41.970551 559.353638,41.970551 553.995728,41.970551 
	C555.447693,36.555195 556.802856,31.500872 558.232483,26.168808 
	C547.522095,26.168808 537.411926,26.168808 527.365906,26.168808 
	C526.732788,28.182838 526.125244,30.016350 525.581116,31.868477 
	C524.624634,35.123997 524.672974,39.700005 522.509766,41.296204 
	C520.204590,42.997223 515.782715,41.613770 512.366333,42.122719 
	C510.826538,42.352097 508.697388,43.608360 508.204071,44.915272 
	C506.890625,48.394669 506.320251,52.154556 505.381470,56.110428 
	C510.135498,56.110428 514.441895,56.110428 519.092285,56.110428 
	C517.473999,61.964241 515.417480,67.441040 514.518982,73.101646 
	C513.078247,82.178596 512.213928,90.615051 526.363831,92.901901 
	C536.234741,94.497208 546.364136,94.493599 556.163452,95.188957 
	C557.684021,89.618652 558.809143,85.497177 560.036804,80.999847 
	C556.860046,80.999847 554.044861,80.930336 551.234497,81.017761 
	C547.861511,81.122681 545.575500,79.912582 545.007446,75.503540 
M574.005920,419.262299 
	C573.980591,417.100098 574.134705,414.918182 573.899841,412.778992 
	C572.653748,401.425629 571.401306,390.071136 569.924072,378.746613 
	C569.623291,376.441040 568.135620,372.279938 567.557678,372.342163 
	C563.315918,372.798828 558.192749,369.426392 554.866882,374.436523 
	C540.996948,395.330292 527.145752,416.237000 513.411072,437.219696 
	C511.301483,440.442505 509.837646,444.087921 508.099792,447.489594 
	C510.357239,448.030823 511.920929,448.713715 513.487183,448.719604 
	C517.185913,448.733429 521.392883,450.674042 524.191223,446.454010 
	C527.159790,441.977203 530.014893,437.423187 533.074707,433.010406 
	C533.707153,432.098328 535.012573,431.107391 536.024292,431.089600 
	C544.640869,430.937927 553.261292,431.002838 562.049011,431.002838 
	C562.768799,437.244171 563.434082,443.012817 564.090027,448.700317 
	C568.639771,448.700317 572.713745,448.700317 577.106750,448.700317 
	C576.712402,442.657684 576.480591,436.920135 575.914490,431.215790 
	C575.547119,427.513306 574.692078,423.859192 574.005920,419.262299 
M696.007996,430.292023 
	C698.017456,423.253265 697.722412,416.455536 691.797974,411.493378 
	C687.111328,407.567993 681.788879,404.339935 676.516541,401.191132 
	C670.018860,397.310516 668.465149,392.249512 673.050110,387.115723 
	C676.535034,383.213593 681.185730,381.457916 686.393311,382.803864 
	C692.232422,384.312988 697.955383,386.271271 703.803711,388.057007 
	C704.589905,385.495453 705.816345,382.165161 706.553894,378.729919 
	C706.807617,377.548462 706.256470,375.428497 705.369080,374.883514 
	C693.542175,367.619965 670.141724,366.546051 659.002502,381.474670 
	C653.458740,388.904327 652.250793,405.105316 663.164856,410.716125 
	C666.894165,412.633331 670.588196,414.691803 674.033325,417.069672 
	C677.697693,419.598999 682.175293,422.073883 680.906738,427.655731 
	C679.733398,432.819183 676.232544,435.707031 670.952759,437.109467 
	C664.817322,438.739197 659.486023,436.807953 654.143250,434.555115 
	C651.340088,433.373077 648.767761,431.643494 645.674500,429.930420 
	C644.326172,434.979614 643.181702,439.265503 641.978333,443.771881 
	C650.059692,448.581268 658.572998,450.293121 667.784058,450.083008 
	C681.720459,449.765106 690.788147,443.931732 696.007996,430.292023 
M386.345978,406.000000 
	C379.617737,406.000000 372.889496,406.000000 365.845551,406.000000 
	C367.689087,399.400696 369.729218,393.577209 370.825195,387.581177 
	C371.417053,384.342987 372.813721,383.947021 375.439575,383.972229 
	C383.436005,384.049103 391.435303,384.082397 399.429108,383.918304 
	C400.752136,383.891144 402.826172,383.100922 403.223999,382.122803 
	C404.599365,378.740967 405.387360,375.120209 406.507141,371.212952 
	C390.345337,371.212952 374.901794,371.212952 359.536896,371.212952 
	C352.612061,396.995209 345.714935,422.674225 338.718964,448.721191 
	C344.231079,448.721191 349.313263,448.721191 354.399078,448.721191 
	C356.922699,439.632507 359.696747,430.552643 361.856842,421.328979 
	C362.538910,418.416626 363.748108,417.949707 366.185303,417.976166 
	C372.682220,418.046661 379.183167,418.100342 385.675995,417.921692 
	C387.108002,417.882294 389.386261,417.196045 389.768555,416.218536 
	C390.976105,413.131165 391.468933,409.764221 392.357574,406.000000 
	C390.253052,406.000000 388.777679,406.000000 386.345978,406.000000 
M432.055878,88.723358 
	C432.767609,86.309891 433.479309,83.896431 434.333466,81.000000 
	C431.710480,81.000000 429.738281,81.003685 427.766052,80.999321 
	C421.386688,80.985222 419.907196,79.027390 421.607391,72.818710 
	C422.627045,69.095322 423.749176,65.398399 424.693329,61.656303 
	C426.296570,55.302212 427.795563,48.921822 429.422455,42.205303 
	C418.273529,42.205303 407.850006,42.205303 397.228119,42.205303 
	C394.187225,53.398266 391.014923,64.531311 388.164581,75.746178 
	C386.049774,84.067230 390.672333,91.277176 399.056122,92.970589 
	C408.373993,94.852676 417.712311,95.669113 427.262268,94.164345 
	C430.540344,93.647820 432.021942,92.777817 432.055878,88.723358 
M593.545776,427.962372 
	C591.624207,434.773285 589.702637,441.584198 587.611145,448.997192 
	C602.433105,448.997192 616.703308,449.027069 630.972717,448.930664 
	C631.933411,448.924164 633.536438,448.142212 633.735474,447.417389 
	C634.732117,443.787689 635.360229,440.056824 636.185303,436.032532 
	C626.135559,436.032532 616.830200,436.032532 607.204834,436.032532 
	C612.995056,414.349030 618.710632,392.944824 624.570435,371.000824 
	C619.624756,371.000824 615.628235,370.768097 611.686890,371.132050 
	C610.377197,371.253021 608.505676,372.672394 608.098511,373.898987 
	C606.373596,379.095276 605.061584,384.431641 603.674744,389.736664 
	C600.409790,402.225494 597.188354,414.725616 593.545776,427.962372 
M415.937775,443.341064 
	C422.283264,419.364807 428.628784,395.388519 435.037750,371.172424 
	C429.592194,371.172424 424.469513,371.172424 419.187347,371.172424 
	C412.273956,397.014252 405.389221,422.748962 398.366364,449.000000 
	C402.889923,449.000000 406.237244,448.719421 409.516541,449.071777 
	C413.521301,449.502045 415.343201,447.921692 415.937775,443.341064 
M420.472626,34.000000 
	C423.459900,33.999302 426.459320,34.151127 429.427734,33.914246 
	C430.451233,33.832569 432.004059,32.980549 432.277863,32.141838 
	C433.748108,27.637848 434.891266,23.027073 436.270935,18.003279 
	C425.775696,18.003279 416.000946,17.977825 406.226898,18.046370 
	C405.341583,18.052582 403.842651,18.474604 403.674347,19.023909 
	C402.205536,23.817797 400.975128,28.684729 399.547699,34.000000 
	C406.899628,34.000000 413.191162,34.000000 420.472626,34.000000 
z"/>
<path fill="#171C8F" opacity="1.000000" stroke="none" 
	d="
M620.000000,174.000000 
	C602.388367,174.000000 585.276733,174.000000 567.715820,174.000000 
	C571.375366,160.345596 574.839783,147.255280 578.409058,134.193619 
	C579.596619,129.847733 579.816895,123.950165 582.736511,121.729164 
	C585.621277,119.534729 591.358154,121.019127 595.844055,121.012291 
	C614.839783,120.983322 633.864807,120.347176 652.822388,121.197441 
	C669.295898,121.936287 685.981628,121.460709 702.133606,125.989548 
	C717.407715,130.272232 731.756836,136.357742 742.197632,148.840073 
	C750.136230,158.330963 754.687256,169.378204 756.127014,181.907608 
	C757.785217,196.337540 755.841980,210.071960 751.107056,223.672943 
	C744.346069,243.093628 731.415405,257.277863 713.979858,267.417694 
	C696.686462,277.474945 677.764343,282.478577 657.786438,282.934540 
	C643.053101,283.270782 628.305908,283.000549 613.637817,283.000549 
	C608.551270,302.070709 603.533936,319.913391 599.162659,337.912933 
	C597.988647,342.747101 596.264771,344.182495 591.345642,344.123108 
	C568.366150,343.845642 545.381348,344.000000 522.102112,344.000000 
	C526.567932,327.213745 530.932678,310.739014 535.335754,294.274536 
	C541.214844,272.290253 547.169983,250.326096 552.968140,228.320541 
	C553.798523,225.168961 555.703430,224.953537 558.379883,224.958710 
	C591.205688,225.022141 624.033203,225.182404 656.856873,224.912811 
	C670.541382,224.800430 682.695740,220.050919 690.234680,208.045898 
	C698.628357,194.679810 694.176941,178.788254 675.958191,176.385361 
	C657.685120,173.975327 639.002930,174.667465 620.000000,174.000000 
z"/>
<path fill="#171C8F" opacity="1.000000" stroke="none" 
	d="
M291.139557,246.003510 
	C301.283203,244.704865 310.968201,243.380051 320.664215,242.142059 
	C322.265442,241.937592 323.915192,242.113251 325.713196,242.113251 
	C330.805237,276.052399 335.867554,309.793549 340.965851,343.774323 
	C314.407104,343.774323 287.975464,343.774323 261.049683,343.774323 
	C259.698914,332.312408 258.278992,320.860291 257.043243,309.388336 
	C256.703461,306.234161 255.603241,304.903503 252.170380,304.927917 
	C231.681351,305.073578 211.189728,304.910187 190.702377,305.145874 
	C188.759995,305.168243 186.156448,306.763641 185.022659,308.423157 
	C177.809677,318.980804 170.946945,329.777191 163.910751,340.456635 
	C162.384155,342.773712 160.681824,344.170715 157.282578,344.137329 
	C131.646866,343.885651 106.007538,344.000000 79.281044,344.000000 
	C88.171021,330.859772 96.617874,318.374542 105.443474,305.329468 
	C72.151978,305.329468 39.464180,305.329468 6.776383,305.329468 
	C6.677161,304.913940 6.577940,304.498444 6.478718,304.082916 
	C11.773233,302.394592 17.004349,300.463501 22.373562,299.061157 
	C42.522972,293.798523 62.649479,288.420563 82.914604,283.636627 
	C102.275803,279.066040 121.766518,275.022888 141.259964,271.039856 
	C160.151321,267.179871 179.075607,263.446259 198.065994,260.116455 
	C213.601669,257.392334 229.263000,255.390274 244.855316,252.982010 
	C257.222076,251.071945 269.565247,249.009583 281.926788,247.064957 
	C284.829742,246.608307 287.764465,246.353836 291.139557,246.003510 
z"/>
<path fill="#171C8F" opacity="1.000000" stroke="none" 
	d="
M401.000000,121.000000 
	C456.261017,121.000000 511.022003,121.000000 566.314575,121.000000 
	C564.679871,127.586121 563.268250,133.693497 561.639526,139.742401 
	C558.830566,150.174362 555.970032,160.594788 552.889648,170.948227 
	C552.519104,172.193497 550.697815,173.796600 549.466797,173.870819 
	C540.063354,174.437683 530.633850,174.553909 521.223206,175.023865 
	C502.791718,175.944305 484.359558,176.883118 465.942413,178.047119 
	C453.663971,178.823181 441.398682,179.872833 429.149994,181.036713 
	C416.947906,182.196167 404.780884,183.720306 392.585449,184.955750 
	C381.667572,186.061783 370.723877,186.914108 359.807495,188.033447 
	C354.326843,188.595428 348.881561,189.502441 342.987885,190.312881 
	C349.274841,166.828278 355.380341,144.021515 361.543335,121.000000 
	C374.551056,121.000000 387.525513,121.000000 401.000000,121.000000 
z"/>
<path fill="#171C8F" opacity="1.000000" stroke="none" 
	d="
M166.975784,216.151596 
	C180.008957,196.942627 192.973770,178.105667 205.966446,159.287933 
	C214.256088,147.281754 222.559631,135.284836 230.947845,123.347656 
	C231.670166,122.319733 233.072601,121.105148 234.164963,121.099442 
	C258.624237,120.971657 283.084320,121.001450 307.342468,121.001450 
	C310.260559,139.358627 313.135590,157.321091 315.959473,175.291580 
	C316.717651,180.116272 317.524200,184.951324 317.860535,189.812607 
	C317.952545,191.142471 316.596893,193.644791 315.604370,193.811066 
	C305.968018,195.425598 296.265778,196.644943 286.585785,198.001434 
	C274.649933,199.674072 262.691589,201.208435 250.790833,203.103027 
	C239.737503,204.862717 228.731674,206.936188 217.732574,209.017548 
	C201.489700,212.091156 185.267838,215.276535 169.047363,218.466858 
	C167.246964,218.820953 164.884842,220.216339 166.975784,216.151596 
z"/>
<path fill="#171C8F" opacity="1.000000" stroke="none" 
	d="
M412.000000,344.000000 
	C396.846283,344.000000 382.192535,344.000000 366.871643,344.000000 
	C376.766296,307.131714 386.559845,270.640106 396.400940,233.971405 
	C421.907410,231.895218 447.237183,229.833389 473.367310,227.706436 
	C470.941895,236.636948 468.695251,244.807617 466.504730,252.993286 
	C458.659393,282.309814 450.756195,311.611389 443.113525,340.980743 
	C442.312042,344.060669 440.710785,344.008118 438.496887,344.004974 
	C429.831268,343.992676 421.165619,343.999969 412.000000,344.000000 
z"/>
<path fill="#171C8F" opacity="1.000000" stroke="none" 
	d="
M367.914154,93.111931 
	C354.140320,93.656204 340.290314,96.218513 327.025177,90.112610 
	C320.095947,86.923103 315.167603,81.790298 312.159027,75.217804 
	C306.726105,63.349205 302.031921,51.142166 297.046173,39.069485 
	C296.385162,37.468960 295.822937,35.827648 295.214935,34.205227 
	C294.749908,34.187164 294.284851,34.169102 293.819794,34.151039 
	C288.452545,54.021385 283.085297,73.891731 277.708374,93.797913 
	C266.447021,93.797913 255.339859,93.797913 244.100662,93.797913 
	C250.203629,70.823792 256.162262,48.048275 262.337738,25.331696 
	C264.517731,17.312561 261.120087,11.710006 254.696930,6.390396 
	C256.525818,6.219722 257.702820,6.017352 258.880280,6.014498 
	C269.209625,5.989459 279.542969,5.817683 289.867615,6.039647 
	C308.765381,6.445919 320.889465,15.685828 327.052582,32.841549 
	C330.648529,42.851154 334.511963,52.765472 338.341675,62.689240 
	C338.829437,63.953197 339.842285,65.014534 341.175293,67.015503 
	C346.764984,46.164188 352.085083,26.318415 357.475250,6.211262 
	C368.334869,6.211262 379.450897,6.211262 391.121155,6.211262 
	C383.372284,35.164795 375.677582,63.915920 367.914154,93.111931 
z"/>
<path fill="#171C8F" opacity="1.000000" stroke="none" 
	d="
M661.800415,71.518044 
	C656.844238,83.238739 647.286438,88.579742 636.244263,91.985664 
	C623.583801,95.890785 610.490356,95.538795 597.570190,94.751991 
	C590.989685,94.351257 584.223450,92.141899 578.142700,89.410774 
	C565.774109,83.855522 564.404541,71.486687 570.816101,60.819511 
	C577.201843,50.195343 587.715393,45.040897 599.336426,43.220856 
	C610.163574,41.525143 621.288269,41.034908 632.263733,41.203407 
	C640.786316,41.334240 649.354431,43.071301 656.354675,48.845158 
	C663.139526,54.441422 665.198059,62.600780 661.800415,71.518044 
M628.087219,71.458954 
	C628.724854,69.649345 629.545044,67.881470 629.969849,66.023209 
	C632.369995,55.523441 626.248047,49.874516 615.653137,52.738945 
	C606.653442,55.172104 601.068665,61.657295 600.003357,70.912086 
	C598.846375,80.962921 605.464233,86.110146 615.308533,83.343407 
	C621.504639,81.602005 625.523743,77.963623 628.087219,71.458954 
z"/>
<path fill="#171C8F" opacity="1.000000" stroke="none" 
	d="
M497.999451,389.036072 
	C499.345612,383.792877 500.476654,378.896515 502.158722,374.197357 
	C502.644470,372.840363 504.629852,371.308441 506.073914,371.144501 
	C509.845795,370.716248 513.698547,371.000275 518.083557,371.000275 
	C514.135132,385.612915 510.267151,399.851807 506.443695,414.102661 
	C503.599213,424.704773 500.894836,435.345856 497.890350,445.901947 
	C497.534271,447.152985 495.681610,447.982574 494.505737,448.987732 
	C494.409241,449.070160 494.181427,448.993073 494.015106,449.000580 
	C482.917694,449.501831 483.071564,449.443848 477.982697,435.970367 
	C473.655029,424.512268 468.931946,413.203125 464.338806,401.846313 
	C463.936310,400.851105 463.199371,399.991211 462.023010,398.125000 
	C459.847565,405.979584 457.880035,412.910675 456.012787,419.868744 
	C453.628235,428.754456 451.398621,437.682892 448.885559,446.531403 
	C448.595032,447.554352 446.970184,448.802856 445.883148,448.885681 
	C442.090271,449.174530 438.261902,448.997375 433.535675,448.997375 
	C440.568146,422.747223 447.467072,396.995483 454.394165,371.138550 
	C458.796661,371.138550 463.100739,371.138550 467.421875,371.138550 
	C474.235535,387.832275 481.028564,404.475555 487.821625,421.118805 
	C488.320374,421.080414 488.819153,421.041992 489.317902,421.003601 
	C492.209961,410.488373 495.102051,399.973175 497.999451,389.036072 
z"/>
<path fill="#171C8F" opacity="1.000000" stroke="none" 
	d="
M479.717102,73.657448 
	C478.879608,79.029488 480.183105,80.813118 484.778656,80.979286 
	C487.753052,81.086845 490.734436,80.999519 494.261627,80.999519 
	C492.974365,85.574280 491.816986,89.687416 490.761505,93.438538 
	C480.180634,95.810234 469.940674,95.306816 459.771179,93.004150 
	C449.626465,90.707085 445.741089,84.095009 448.471252,74.001190 
	C449.269165,71.051201 450.153534,68.124481 450.941284,65.171890 
	C451.688568,62.371040 452.361145,59.550262 453.213837,56.151352 
	C448.692780,56.151352 444.481140,56.151352 439.459625,56.151352 
	C440.846466,51.011639 442.041351,46.583256 443.278046,42.000000 
	C446.205505,42.000000 448.916260,41.650070 451.498749,42.076611 
	C456.137543,42.842773 457.929108,40.429546 458.802979,36.504395 
	C459.569397,33.061726 460.395264,29.632292 461.209595,26.133930 
	C471.453918,26.133930 481.419922,26.133930 492.257050,26.133930 
	C490.946503,31.437450 489.698792,36.486668 488.352966,41.932888 
	C493.495026,41.932888 498.539703,41.932888 504.456116,41.932888 
	C503.137421,46.916504 501.968170,51.335281 500.749237,55.941864 
	C495.294983,55.941864 489.989410,55.941864 484.327209,55.941864 
	C482.843445,61.819897 481.393311,67.564621 479.717102,73.657448 
z"/>
<path fill="#171C8F" opacity="1.000000" stroke="none" 
	d="
M545.006653,75.924477 
	C545.575500,79.912582 547.861511,81.122681 551.234497,81.017761 
	C554.044861,80.930336 556.860046,80.999847 560.036804,80.999847 
	C558.809143,85.497177 557.684021,89.618652 556.163452,95.188957 
	C546.364136,94.493599 536.234741,94.497208 526.363831,92.901901 
	C512.213928,90.615051 513.078247,82.178596 514.518982,73.101646 
	C515.417480,67.441040 517.473999,61.964241 519.092285,56.110428 
	C514.441895,56.110428 510.135498,56.110428 505.381470,56.110428 
	C506.320251,52.154556 506.890625,48.394669 508.204071,44.915272 
	C508.697388,43.608360 510.826538,42.352097 512.366333,42.122719 
	C515.782715,41.613770 520.204590,42.997223 522.509766,41.296204 
	C524.672974,39.700005 524.624634,35.123997 525.581116,31.868477 
	C526.125244,30.016350 526.732788,28.182838 527.365906,26.168808 
	C537.411926,26.168808 547.522095,26.168808 558.232483,26.168808 
	C556.802856,31.500872 555.447693,36.555195 553.995728,41.970551 
	C559.353638,41.970551 564.470886,41.970551 570.238159,41.970551 
	C569.003906,46.864059 567.884888,51.300575 566.716064,55.934612 
	C561.294006,55.934612 555.995300,55.934612 550.294006,55.934612 
	C548.510803,62.535316 546.759094,69.019432 545.006653,75.924477 
z"/>
<path fill="#171C8F" opacity="1.000000" stroke="none" 
	d="
M574.030701,419.722839 
	C574.692078,423.859192 575.547119,427.513306 575.914490,431.215790 
	C576.480591,436.920135 576.712402,442.657684 577.106750,448.700317 
	C572.713745,448.700317 568.639771,448.700317 564.090027,448.700317 
	C563.434082,443.012817 562.768799,437.244171 562.049011,431.002838 
	C553.261292,431.002838 544.640869,430.937927 536.024292,431.089600 
	C535.012573,431.107391 533.707153,432.098328 533.074707,433.010406 
	C530.014893,437.423187 527.159790,441.977203 524.191223,446.454010 
	C521.392883,450.674042 517.185913,448.733429 513.487183,448.719604 
	C511.920929,448.713715 510.357239,448.030823 508.099792,447.489594 
	C509.837646,444.087921 511.301483,440.442505 513.411072,437.219696 
	C527.145752,416.237000 540.996948,395.330292 554.866882,374.436523 
	C558.192749,369.426392 563.315918,372.798828 567.557678,372.342163 
	C568.135620,372.279938 569.623291,376.441040 569.924072,378.746613 
	C571.401306,390.071136 572.653748,401.425629 573.899841,412.778992 
	C574.134705,414.918182 573.980591,417.100098 574.030701,419.722839 
M560.005859,407.232330 
	C560.003357,404.580048 560.209595,401.904327 559.916077,399.284668 
	C559.753235,397.831940 558.755310,396.472778 558.133789,395.071442 
	C556.760071,396.025940 555.039856,396.719940 554.085571,397.989655 
	C552.162415,400.548615 550.665161,403.426422 548.975708,406.162476 
	C546.493713,410.181976 543.997253,414.192596 541.217773,418.673157 
	C548.456055,418.673157 554.647400,418.673157 561.428284,418.673157 
	C560.936340,414.909515 560.495483,411.536530 560.005859,407.232330 
z"/>
<path fill="#171C8F" opacity="1.000000" stroke="none" 
	d="
M695.985596,430.710876 
	C690.788147,443.931732 681.720459,449.765106 667.784058,450.083008 
	C658.572998,450.293121 650.059692,448.581268 641.978333,443.771881 
	C643.181702,439.265503 644.326172,434.979614 645.674500,429.930420 
	C648.767761,431.643494 651.340088,433.373077 654.143250,434.555115 
	C659.486023,436.807953 664.817322,438.739197 670.952759,437.109467 
	C676.232544,435.707031 679.733398,432.819183 680.906738,427.655731 
	C682.175293,422.073883 677.697693,419.598999 674.033325,417.069672 
	C670.588196,414.691803 666.894165,412.633331 663.164856,410.716125 
	C652.250793,405.105316 653.458740,388.904327 659.002502,381.474670 
	C670.141724,366.546051 693.542175,367.619965 705.369080,374.883514 
	C706.256470,375.428497 706.807617,377.548462 706.553894,378.729919 
	C705.816345,382.165161 704.589905,385.495453 703.803711,388.057007 
	C697.955383,386.271271 692.232422,384.312988 686.393311,382.803864 
	C681.185730,381.457916 676.535034,383.213593 673.050110,387.115723 
	C668.465149,392.249512 670.018860,397.310516 676.516541,401.191132 
	C681.788879,404.339935 687.111328,407.567993 691.797974,411.493378 
	C697.722412,416.455536 698.017456,423.253265 695.985596,430.710876 
z"/>
<path fill="#171C8F" opacity="1.000000" stroke="none" 
	d="
M386.824158,406.000000 
	C388.777679,406.000000 390.253052,406.000000 392.357574,406.000000 
	C391.468933,409.764221 390.976105,413.131165 389.768555,416.218536 
	C389.386261,417.196045 387.108002,417.882294 385.675995,417.921692 
	C379.183167,418.100342 372.682220,418.046661 366.185303,417.976166 
	C363.748108,417.949707 362.538910,418.416626 361.856842,421.328979 
	C359.696747,430.552643 356.922699,439.632507 354.399078,448.721191 
	C349.313263,448.721191 344.231079,448.721191 338.718964,448.721191 
	C345.714935,422.674225 352.612061,396.995209 359.536896,371.212952 
	C374.901794,371.212952 390.345337,371.212952 406.507141,371.212952 
	C405.387360,375.120209 404.599365,378.740967 403.223999,382.122803 
	C402.826172,383.100922 400.752136,383.891144 399.429108,383.918304 
	C391.435303,384.082397 383.436005,384.049103 375.439575,383.972229 
	C372.813721,383.947021 371.417053,384.342987 370.825195,387.581177 
	C369.729218,393.577209 367.689087,399.400696 365.845551,406.000000 
	C372.889496,406.000000 379.617737,406.000000 386.824158,406.000000 
z"/>
<path fill="#171C8F" opacity="1.000000" stroke="none" 
	d="
M432.030701,89.147644 
	C432.021942,92.777817 430.540344,93.647820 427.262268,94.164345 
	C417.712311,95.669113 408.373993,94.852676 399.056122,92.970589 
	C390.672333,91.277176 386.049774,84.067230 388.164581,75.746178 
	C391.014923,64.531311 394.187225,53.398266 397.228119,42.205303 
	C407.850006,42.205303 418.273529,42.205303 429.422455,42.205303 
	C427.795563,48.921822 426.296570,55.302212 424.693329,61.656303 
	C423.749176,65.398399 422.627045,69.095322 421.607391,72.818710 
	C419.907196,79.027390 421.386688,80.985222 427.766052,80.999321 
	C429.738281,81.003685 431.710480,81.000000 434.333466,81.000000 
	C433.479309,83.896431 432.767609,86.309891 432.030701,89.147644 
z"/>
<path fill="#171C8F" opacity="1.000000" stroke="none" 
	d="
M593.747559,427.591797 
	C597.188354,414.725616 600.409790,402.225494 603.674744,389.736664 
	C605.061584,384.431641 606.373596,379.095276 608.098511,373.898987 
	C608.505676,372.672394 610.377197,371.253021 611.686890,371.132050 
	C615.628235,370.768097 619.624756,371.000824 624.570435,371.000824 
	C618.710632,392.944824 612.995056,414.349030 607.204834,436.032532 
	C616.830200,436.032532 626.135559,436.032532 636.185303,436.032532 
	C635.360229,440.056824 634.732117,443.787689 633.735474,447.417389 
	C633.536438,448.142212 631.933411,448.924164 630.972717,448.930664 
	C616.703308,449.027069 602.433105,448.997192 587.611145,448.997192 
	C589.702637,441.584198 591.624207,434.773285 593.747559,427.591797 
z"/>
<path fill="#171C8F" opacity="1.000000" stroke="none" 
	d="
M415.697144,443.690002 
	C415.343201,447.921692 413.521301,449.502045 409.516541,449.071777 
	C406.237244,448.719421 402.889923,449.000000 398.366364,449.000000 
	C405.389221,422.748962 412.273956,397.014252 419.187347,371.172424 
	C424.469513,371.172424 429.592194,371.172424 435.037750,371.172424 
	C428.628784,395.388519 422.283264,419.364807 415.697144,443.690002 
z"/>
<path fill="#D22630" opacity="1.000000" stroke="none" 
	d="
M419.977661,34.000000 
	C413.191162,34.000000 406.899628,34.000000 399.547699,34.000000 
	C400.975128,28.684729 402.205536,23.817797 403.674347,19.023909 
	C403.842651,18.474604 405.341583,18.052582 406.226898,18.046370 
	C416.000946,17.977825 425.775696,18.003279 436.270935,18.003279 
	C434.891266,23.027073 433.748108,27.637848 432.277863,32.141838 
	C432.004059,32.980549 430.451233,33.832569 429.427734,33.914246 
	C426.459320,34.151127 423.459900,33.999302 419.977661,34.000000 
z"/>
<path fill="#FFFFFF" opacity="1.000000" stroke="none" 
	d="
M628.027039,71.847748 
	C625.523743,77.963623 621.504639,81.602005 615.308533,83.343407 
	C605.464233,86.110146 598.846375,80.962921 600.003357,70.912086 
	C601.068665,61.657295 606.653442,55.172104 615.653137,52.738945 
	C626.248047,49.874516 632.369995,55.523441 629.969849,66.023209 
	C629.545044,67.881470 628.724854,69.649345 628.027039,71.847748 
z"/>
<path fill="#FFFFFF" opacity="1.000000" stroke="none" 
	d="
M560.030273,407.697937 
	C560.495483,411.536530 560.936340,414.909515 561.428284,418.673157 
	C554.647400,418.673157 548.456055,418.673157 541.217773,418.673157 
	C543.997253,414.192596 546.493713,410.181976 548.975708,406.162476 
	C550.665161,403.426422 552.162415,400.548615 554.085571,397.989655 
	C555.039856,396.719940 556.760071,396.025940 558.133789,395.071442 
	C558.755310,396.472778 559.753235,397.831940 559.916077,399.284668 
	C560.209595,401.904327 560.003357,404.580048 560.030273,407.697937 
z"/>
</svg>