<svg xmlns="http://www.w3.org/2000/svg" viewBox="0 0 377 225"><g fill="#fff" stroke-width="0"><path d="M1 112.5V225h376l-.2-112.2L376.5.5 251.6.3c-99.1-.2-125.1 0-125.8 1-.6.9-.8.9-.8-.1C125 .3 111.9 0 63 0H1zM152.7 4.7c4.9 2.3 8.4 7.6 12.3 18.4l3.3 9.3 1.2-3.4c.7-1.9 2.5-8.6 4.1-14.8L176.5 3h8.8c7.9 0 8.8.2 8.3 1.7-.3 1-2.8 10.6-5.7 21.3-2.8 10.7-5.6 19.9-6.3 20.3-2.1 1.5-16.9.2-20.6-1.8-1.9-1.1-3.8-1.8-4.3-1.7-.4.1-.6-.1-.5-.5.1-.5-1.2-3.7-2.9-7.3-1.6-3.6-3.8-8.6-4.8-11.3-1-2.6-2.1-4.7-2.4-4.7-.4 0-2 4.8-3.5 10.7-1.6 6-3.3 12.3-3.8 14l-.9 3.3h-8.4c-6.1 0-8.5-.3-8.5-1.3 0-.6 2-8.8 4.5-18 2.5-9.3 4.5-17.5 4.5-18.2s-.9-2.4-2.1-3.9l-2-2.6h11.6c8.9 0 12.6.4 15.2 1.7m62.8 7.5c-.4 1.8-.9 3.6-1.2 4-.6 1.1-16.3 1-16.3-.1 0-.5.3-2.3.6-4l.7-3.1h16.9zm28.5 1.7c0 .5-.4 2.1-1 3.5-.9 2.5-.8 2.6 3.1 2.6 4.1 0 4.1 0 3.4 3.2-1 4.7-1.2 4.8-5.5 4.8-3.7 0-4 .2-5 4.1-1.6 5.8-1 7.3 2.8 7.7 2.9.3 3.2.6 2.6 3-.4 1.5-.9 3-1.1 3.4-.7 1.4-14.2.9-17.8-.6-4.3-1.8-5.1-4.6-3.2-11.9l1.5-5.7h-3.5c-2.8 0-3.4-.3-2.9-1.6.3-.9.9-2.6 1.2-3.9.5-1.9 1.4-2.5 4.2-2.7 3.1-.3 3.7-.7 4.4-3.6l.9-3.2h7.9c4.4 0 8 .4 8 .9m31.9 2.3c-.5 1.8-.9 3.4-.9 3.5 0 .2 1.6.3 3.5.3 3.7 0 4.2.9 2.9 5.7-.5 1.7-1.5 2.3-4.6 2.5-3.9.3-4.2.5-5.4 4.8-1.5 5.2-.6 7 3.6 7 2.8 0 2.8.1 1.7 3.6l-1.1 3.6-8.8-.4c-11.3-.5-13.3-2-12.4-9.3.3-2.8.8-6 1.2-7.3.6-2 .3-2.2-2.6-2.2-3.1 0-3.2-.1-2.6-3.2.7-3.7 2-4.8 5.8-4.8 2.3 0 2.8-.5 3.4-3.5l.6-3.5h16.7zM213 20.6c0 .3-.9 4.2-2.1 8.6-1.1 4.4-1.8 8.7-1.5 9.4.3.8 1.7 1.4 3.1 1.4 2.8 0 3 .6 1.5 4.5-1 2.7-1.1 2.7-9.4 2.4-13.2-.6-14.4-2.7-10.5-18.4l2.1-8.5h8.4c4.6 0 8.4.3 8.4.6m110.2 2.2c6.9 4.3 7 12 .2 18.4-4.5 4.2-10.4 5.8-21.6 5.8-10.4 0-15.4-1.3-19.5-5.1-2.5-2.5-2.5-8.3 0-12.3 4.7-7.1 12.3-9.6 27.7-9.3 7.9.2 10.2.6 13.2 2.5m-42.6 38.1c-.3.9-1.9 6.9-3.7 13.3l-3.1 11.7-4.2.5c-2.2.3-13.8.9-25.6 1.5s-33.1 2.2-47.3 3.7c-14.2 1.4-26.1 2.4-26.4 2-.4-.3 1.4-8.1 3.9-17.4l4.5-16.7 49.4-.5c27.2-.3 50.2-.3 51.2-.1 1.1.2 1.6 1 1.3 2M155.4 76.6c1.6 10.7 2.4 18 1.8 18.6-.5.5-9.4 2.2-19.8 3.8-23.1 3.6-40.9 6.6-48.9 8.5-3.3.7-6.2 1.2-6.4.9-.5-.5 1.9-4.1 18.8-28.6C111.6 64.2 115 60 117 59.7c1.4-.2 9.9-.5 19.1-.6l16.5-.1zm190.4-15.1c17.8 4.2 27.4 14.1 28.8 30 1.2 12.6-3.4 25.2-12.3 34.1-10.3 10.3-22.7 14.4-44 14.4h-14.2l-1 3.5c-.5 1.9-2.2 8.3-3.7 14.2-1.5 6-3.3 11.3-4.1 11.9-.9.8-6.7 1-19.1.7-9.7-.3-17.8-.6-17.9-.7s3.3-13.2 7.6-29.1l7.8-29 28.9-.5c26.8-.5 29.1-.6 32.4-2.6 7.6-4.4 10.4-13.3 5.5-17.8-3.4-3.2-6.2-3.5-34.7-4.3-13.7-.3-24.8-.9-24.8-1.3 0-2.4 6.1-23.4 7.2-24.7 1.1-1.4 4.2-1.5 26.3-.9 16.3.4 27.2 1.2 31.3 2.1m-111.2 52c-.3.9-3.8 13.6-7.7 28.3s-7.4 27-7.8 27.5c-.4.4-9.1.6-19.2.5l-18.5-.3 7.2-26.8c4-14.8 7.4-27 7.6-27.2.3-.3 30.4-3.1 36.2-3.4 2.1-.1 2.7.3 2.2 1.4m-72.6 7.2c.1 1 1.2 8.8 2.5 17.3 1.4 8.5 2.7 16.9 2.9 18.6s.7 5.4 1.1 8.2l.7 5.1-20.4.3-20.3.3-.3-5.2c-.2-2.9-.6-7.1-1-9.5l-.8-4.3-16.1-.3c-12.6-.2-16.4.1-17.5 1.1-.7.8-3.7 5-6.6 9.5-3 4.4-5.9 8.2-6.5 8.5-.7.2-10.1.2-20.9-.1l-19.7-.5 6.4-9.3 6.4-9.4H27.2c-15.8 0-24.1-.4-23.1-1 1.4-.8 23.7-7.3 29.4-8.5 1.1-.2 5.4-1.2 9.5-2.1s8-2 8.6-2.5 1.3-.7 1.6-.4c.2.3 6.9-.8 14.9-2.4 21.1-4.3 40.6-7.7 66.5-11.5 27.6-4.1 27.4-4.1 27.4-1.9m67.6 62.2c1.7.1 3 2.2 6.9 12.1 2.7 6.6 5.1 11.7 5.4 11.4s1.9-5.6 3.6-11.7l3-11.2 4.3-.3c3.8-.3 4.3-.1 3.8 1.5-3.6 12.1-5.6 20.9-5.1 22.2.3.8.3 1.2-.1.8s-1.7 2.5-2.8 6.5l-2.1 7.3h-7.9l-4.5-11.2c-2.5-6.2-4.8-11.3-5.1-11.3s-1.8 5-3.4 11.1-3.5 11.3-4.2 11.6c-.6.2-2.5.3-4.2.1l-2.9-.3 5.2-19.2c2.9-10.6 5-19.5 4.8-19.7-.3-.3.3-.3 1.4-.1 1 .2 2.7.4 3.9.4m118.1 1.4c2.1.9 2.4 1.6 1.9 4.1-.4 1.6-.8 3.2-1.1 3.5-.3.2-2.7-.2-5.4-1.1-5.4-1.7-8.4-1-10.5 2.5-1.2 2-.8 2.5 7.8 8.4 4.2 3 4.6 3.6 4.6 7.4 0 11-11.8 17.1-23.9 12.3-3.8-1.5-3.9-1.5-2.9-5.4l1-3.8 4.1 1.9c5.9 2.6 9.1 2.4 11.6-.7 2.6-3.3 1.9-4.9-3.8-8.1-6-3.4-7.1-4.9-7.1-9.4 0-6.7 3.1-10.8 9.9-13 3-.9 10.3-.2 13.8 1.4m-146.8 1.9c-.5 1.8-.9 3.4-.9 3.5 0 .2-3.4.3-7.5.3-8.2 0-8.1-.1-9.9 7.2l-.6 2.8h13l-.6 2.7c-1 4.3-1.1 4.3-7.9 4.3h-6.4l-1.6 5.7c-.9 3.2-1.8 6.5-2.1 7.4-.5 1.9-3.8 2.8-7 2-2-.6-2-1 2.8-18.6 2.7-9.9 5-18.6 5.3-19.3.3-.9 3.7-1.2 12.4-1.2h12zm14.8-2c-.2.7-2.6 9.5-5.2 19.5l-4.8 18.3h-4.4c-2.4 0-4.3-.2-4.3-.5 0-.2 1.6-6.2 3.5-13.3 1.9-7 3.6-13.7 3.8-14.8.2-1 1-3.8 1.7-6.2 1.3-4.1 1.4-4.2 5.8-4.2 3.1 0 4.3.4 3.9 1.2m66.2.4c.5.4 4 30.5 4.1 34.6 0 2.5-.3 2.8-3.4 2.8-3.6 0-4.6-1.2-4.6-5.6 0-2.9-3.1-3.9-9.4-3-3.7.6-4.8 1.3-7 4.6-2.3 3.6-3.1 4-6.6 4-2.2 0-4-.4-4-.9 0-1 21.2-33.4 23.8-36.3 1.3-1.6 5.4-1.6 7.1-.2m27.1-.4c0 .7-1.1 5.5-2.5 10.6-1.4 5.2-2.3 9.8-1.9 10.3.3.5.1.9-.4.9s-1.3 2-1.9 4.5l-1 4.5h6.8c7.2 0 7.5.2 6.3 4.7-.6 2.2-1.1 2.3-12 2.3-6.3 0-11.4-.4-11.4-.9 0-2.2 9.3-35.7 10.2-36.9.6-.6 2.6-1.2 4.4-1.2 2.1 0 3.4.5 3.4 1.2"/><path d="M301.9 27.5c-6 3.2-6.3 12.7-.5 13.3 4.2.5 7.1-1.4 9.2-5.9 3.2-7.3-1.5-11.3-8.7-7.4m-29.5 172.7c-1.5 2.4-3.1 4.9-3.7 5.5-.7 1 .2 1.3 3.9 1.3h4.9l-.3-5.5c-.2-3-.8-5.5-1.3-5.5s-2.1 1.9-3.5 4.2"/></g><path fill="navy" d="M128.6 5.5c2.1 3.3 1.7 6.9-3.4 25.7l-4 14.8h16.5l3.8-14.5c2.1-8 4.1-14.5 4.4-14.5s2.6 4.9 5 10.9C157.2 43.6 160.2 46 174 46h7.9l1.5-5.3C187 27.9 193 5.1 193 4.1c0-.7-2.8-1.1-8-1.1h-7.9L176 7.2c-7.6 29-6.8 26.7-8 24.8-.5-.8-2.4-5.5-4.1-10.4-3.8-10.3-8.2-15.8-14.4-17.5-2.2-.6-8.2-1.1-13.3-1.1H127zm98.8 11.2c-.8 3.5-1.2 3.8-4.6 4.1-2.1.2-3.8.9-3.8 1.5 0 .7-.3 2.2-.6 3.4-.6 2-.3 2.3 2.6 2.3 3.2 0 3.2.1 2.5 3.2-.5 1.8-.9 5.3-.9 7.8-.1 4 .2 4.6 2.9 5.9 4.1 2.1 16.2 2.1 17.5.1 1.9-3 1.2-5-1.9-5-3.9 0-4.3-.9-2.9-6.9l1.1-5.1h4.3c3.5 0 4.3-.4 4.8-2.3 1.1-4.1.7-4.7-3-4.7h-3.6l.7-4 .7-4h-14.8zm32.6.3c-1 3.7-1.4 4-4.4 4-3.5 0-4.6 1.3-4.6 5.1 0 1.5.7 1.9 3.1 1.9 2.5 0 3 .3 2.5 1.7-1.8 4.5-2.5 10.4-1.7 12.6 1.1 2.8 2.9 3.4 12.8 4.3 7.4.7 7.6.6 8.7-3.9.6-2.5.4-2.7-2.4-2.7-3.9 0-4.6-1.8-3-7.5 1.2-4.3 1.4-4.5 5.1-4.5 4.1 0 4.3-.2 5.3-4.3.6-2.6.5-2.7-3.5-2.7-3.4 0-4-.3-3.5-1.6 2.5-6.4 2.5-6.4-5.8-6.4h-7.5zm40.3 4c-11.9 1.3-19.3 7.1-19.3 15.2 0 6.6 8.2 10.8 21 10.8 15.3 0 26-6.5 26-15.7 0-8.3-10.4-12.2-27.7-10.3m9.8 5c1.4.8 1.9 2.1 1.9 5.1 0 7.5-9 13.7-13.4 9.3-2.4-2.4-2-7.8.9-11.3 2.2-2.6 3.6-3.3 7.8-4 .5 0 1.7.4 2.8.9m-113.5-4.2c-.2.4-1.4 4.5-2.6 9.2-3.2 12.5-2.1 14.5 8.7 15.6 7.2.7 10.9-.6 11.5-4 .5-2.3.2-2.6-2.3-2.6-1.5 0-3-.4-3.4-.9-.3-.6.4-4.3 1.5-8.3s2-7.8 2-8.5c0-1.5-14.5-1.9-15.4-.5m-86.8 45.9c-11 15.6-27 39.4-26.6 39.8.2.2 5.7-.7 12.3-2s23.1-4.1 36.8-6.2c24.1-3.7 24.7-3.8 24.7-6.1 0-2.4-3.6-26.8-4.5-31-.5-2.2-.7-2.2-18.8-2.2h-18.3zm68.1-3.5c-.6 2.4-2.6 9.9-4.5 16.7-1.8 6.9-3.3 12.6-3.1 12.7.1.1 8.1-.6 17.7-1.7 26.1-2.7 40.2-3.9 63.9-5.2l21.4-1.2 3.4-12c1.8-6.6 3.3-12.3 3.3-12.8 0-.4-22.7-.7-50.5-.7h-50.4zm109.8-2.6c-.3 1.1-1.8 6.4-3.3 11.9-1.4 5.5-2.9 10.5-3.1 11.2-.4 1 4.3 1.3 22.3 1.3 31.8 0 38 1.4 39.8 8.6.9 3.6-2.5 10.6-6.5 13.5-3.4 2.4-3.6 2.4-32.7 2.7s-29.3.3-30.2 2.5c-1.1 2.5-15 54.3-15 55.7 0 .6 7.3 1 18 1 16.1 0 18-.2 18.8-1.7.5-1 2.4-7.7 4.2-14.9l3.4-13.2 16-.5c13.8-.4 17.1-.8 23.4-3 21.4-7.4 32.2-23.1 31-44.7-.9-15.5-9.3-24.8-26.5-29.6-4.4-1.2-12.3-1.7-32.4-2.1-25.5-.5-26.7-.5-27.2 1.3m-77.5 52.9c-7.3.7-13.4 1.4-13.6 1.6-.4.4-14.6 52.6-14.6 53.5 0 .2 8.3.4 18.5.4h18.4l1.1-4.3c1.8-6.9 13.1-49.1 13.6-51 .5-1.5-.2-1.7-4.8-1.6-2.9.1-11.3.7-18.6 1.4m-78 9c-48 7.1-86.2 14.9-119.2 24.3l-9.5 2.7 24.3.5 24.2.5-4.3 6.5c-2.4 3.6-5.2 7.7-6.1 9.2l-1.8 2.8h40.1l6.3-9.3 6.3-9.2 16.9-.3c12.1-.2 17.2.1 17.7.9.4.6 1 4.9 1.4 9.5l.7 8.4H169l-.5-2.3c-.3-1.2-1.9-11.4-3.5-22.7-1.7-11.3-3.2-21.5-3.5-22.8-.7-2.9-1.4-2.8-29.3 1.3M331 184.8c-4.5 2.4-7.4 8.1-6.6 12.6.5 2.6 1.8 4.1 5.8 6.7 8.2 5.4 8.8 8.6 2.3 11.8-2.5 1.2-3.4 1.1-7.8-.8-2.8-1.1-5.1-2-5.3-1.8-.1.1-.5 1.6-.8 3.3-.6 2.6-.3 3.2 1.9 4.2 4.1 1.9 14.5 1.5 18.1-.7 3.1-1.9 6.4-7.4 6.4-10.8 0-2.9-2.5-5.7-8-9.3-5.5-3.5-6.4-6.4-3.2-9.3 2.3-2.1 4.7-2.1 10-.3 4.6 1.6 5.2 1.3 5.2-2.5 0-2.1-.7-2.9-3.1-3.8-4.7-1.6-11-1.3-14.9.7m-154.4 4.4c-.8 2.9-2.9 10.7-4.6 17.3s-3.4 12.8-3.6 13.7c-.4 1.5.1 1.8 3.3 1.8h3.9l1.8-7.5 1.8-7.5h5.8c6 0 9-1.5 9-4.6 0-1.1-1.5-1.4-6.6-1.4-5.3 0-6.5-.3-6.1-1.4.3-.8 1.1-3.3 1.7-5.5l1.1-4.1h7.5c7.1 0 7.5-.1 8.4-2.6.6-1.4 1-2.7 1-3 0-.2-5.1-.4-11.4-.4h-11.5zm25.8 13.8-5 19h3.7c4.4 0 3.8 1.2 9.4-20.5 2-7.7 3.9-14.8 4.1-15.8.4-1.4-.1-1.7-3.3-1.7h-3.8zm21.2-13.8c-3.5 12.5-8.6 31.5-8.6 32.1 0 .4 1.4.7 3.1.7 3.6 0 4.4-1.6 7.9-15.8 1.3-5.1 2.7-8.9 3.1-8.5.4.5 2.6 5.5 4.9 11.3s4.7 11.1 5.2 11.7c1.3 1.7 5.3 1.7 6.5.1.5-.7 2.9-8.5 5.3-17.3 2.3-8.8 4.5-16.8 4.8-17.8.3-1.4-.2-1.7-3.1-1.7-4 0-4-.1-8.3 16.7-1 4-2.2 7.3-2.5 7.3-.4 0-2.9-5.4-5.5-12-4.7-11.9-4.8-12-8-12s-3.4.3-4.8 5.2m40.1 12.7c-6.5 9.9-11.6 18.5-11.2 19.1.3.5 1.8 1 3.3 1 2.1 0 3.3-1 5.5-4.5l2.9-4.5h6.8c7.4 0 8 .5 8 6.1 0 2.6.3 2.9 3.1 2.9h3.2l-.8-10.2c-.4-5.7-1.2-14.1-1.9-18.8-1.1-8.4-1.1-8.5-4.1-8.8-2.9-.2-3.5.6-14.8 17.7m13.7-3.8c.3 1.7.6 4.4.6 6 0 2.8-.2 2.9-5 2.9-2.7 0-5-.2-5-.5 0-1.1 7.1-11.5 7.9-11.5.5 0 1.1 1.4 1.5 3.1m23.6-13.7c0 .7-9 34.6-9.7 36.2-.5 1.3 1 1.4 10.8 1.2l11.3-.3.7-2.8.7-2.7h-14.1l.6-3.2c.4-1.8 2.2-9 4.1-16.1l3.5-12.7h-4c-2.1 0-3.9.2-3.9.4"/><path fill="#00a" d="M304.8 20.7c.7.3 1.6.2 1.9-.1.4-.3-.2-.6-1.3-.5-1.1 0-1.4.3-.6.6m2 5c.7.3 1.6.2 1.9-.1.4-.3-.2-.6-1.3-.5-1.1 0-1.4.3-.6.6m-29.7 174.9c0 1.1.3 1.4.6.6.3-.7.2-1.6-.1-1.9-.3-.4-.6.2-.5 1.3"/><path fill="#d4d4ff" d="M119.8 59.7c.7.3 1.6.2 1.9-.1.4-.3-.2-.6-1.3-.5-1.1 0-1.4.3-.6.6m242.1 66-2.4 2.8 2.8-2.4c1.5-1.4 2.7-2.6 2.7-2.8 0-.8-.8-.1-3.1 2.4m-291.1 45c.7.3 1.6.2 1.9-.1.4-.3-.2-.6-1.3-.5-1.1 0-1.4.3-.6.6"/><path fill="#55a" d="M124.8 46.7c2.3.2 6.1.2 8.5 0 2.3-.2.4-.4-4.3-.4s-6.6.2-4.2.4m45.5 0c.9.2 2.3.2 3 0 .6-.3-.1-.5-1.8-.5-1.6 0-2.2.2-1.2.5m120 13c.9.2 2.3.2 3 0 .6-.3-.1-.5-1.8-.5-1.6 0-2.2.2-1.2.5m-31.5 27c.7.3 1.6.2 1.9-.1.4-.3-.2-.6-1.3-.5-1.1 0-1.4.3-.6.6m67 0c.7.3 1.6.2 1.9-.1.4-.3-.2-.6-1.3-.5-1.1 0-1.4.3-.6.6m-142 97c3.4.2 8.8.2 12 0 3.1-.2.3-.3-6.3-.3s-9.2.1-5.7.3m26 0c1.2.2 3 .2 4 0 .9-.3-.1-.5-2.3-.4-2.2 0-3 .2-1.7.4m16.5 0c.9.2 2.5.2 3.5 0 .9-.3.1-.5-1.8-.5s-2.7.2-1.7.5m25 0c.9.2 2.5.2 3.5 0 .9-.3.1-.5-1.8-.5s-2.7.2-1.7.5m53 0c.9.2 2.5.2 3.5 0 .9-.3.1-.5-1.8-.5s-2.7.2-1.7.5m0 32c2 .2 5.4.2 7.5 0 2-.2.3-.4-3.8-.4s-5.8.2-3.7.4m24.5 1c.7.3 1.6.2 1.9-.1.4-.3-.2-.6-1.3-.5-1.1 0-1.4.3-.6.6m-1 6c1.2.2 3 .2 4 0 .9-.3-.1-.5-2.3-.4-2.2 0-3 .2-1.7.4"/><path fill="#aaaad4" d="M155 6.4c0 .2.8 1 1.8 1.7 1.5 1.3 1.6 1.2.3-.4S155 5.6 155 6.4m45.8 14.3c2.3.2 5.9.2 8 0 2-.2.1-.4-4.3-.4s-6.1.2-3.7.4m20 0c.6.2 1.8.2 2.5 0 .6-.3.1-.5-1.3-.5s-1.9.2-1.2.5m23 0c1.2.2 3 .2 4 0 .9-.3-.1-.5-2.3-.4-2.2 0-3 .2-1.7.4m11 0c.6.2 1.8.2 2.5 0 .6-.3.1-.5-1.3-.5s-1.9.2-1.2.5m22 0c1.2.2 3 .2 4 0 .9-.3-.1-.5-2.3-.4-2.2 0-3 .2-1.7.4m51.3 10.9c0 1.1.3 1.4.6.6.3-.7.2-1.6-.1-1.9-.3-.4-.6.2-.5 1.3M131.2 59.7c3.7.2 10 .2 14 0 4-.1 1-.3-6.7-.3s-11 .1-7.3.3m73.1 0c14.2.2 37.2.2 51 0 13.9-.1 2.3-.2-25.8-.2-28 0-39.4.1-25.2.2m96 0c3.7.2 9.6.2 13 0s.4-.3-6.8-.3c-7.1 0-9.9.1-6.2.3M365 71.4c0 .2.8 1 1.8 1.7 1.5 1.3 1.6 1.2.3-.4s-2.1-2.1-2.1-1.3M263.8 86.7c.6.2 1.8.2 2.5 0 .6-.3.1-.5-1.3-.5s-1.9.2-1.2.5m55 0c.6.2 1.8.2 2.5 0 .6-.3.1-.5-1.3-.5s-1.9.2-1.2.5m-75 1c.7.3 1.6.2 1.9-.1.4-.3-.2-.6-1.3-.5-1.1 0-1.4.3-.6.6m-85 32c.7.3 1.6.2 1.9-.1.4-.3-.2-.6-1.3-.5-1.1 0-1.4.3-.6.6m-83 51c.7.3 1.6.2 1.9-.1.4-.3-.2-.6-1.3-.5-1.1 0-1.4.3-.6.6m215 0c.7.3 1.6.2 1.9-.1.4-.3-.2-.6-1.3-.5-1.1 0-1.4.3-.6.6m47 12c.7.3 1.6.2 1.9-.1.4-.3-.2-.6-1.3-.5-1.1 0-1.4.3-.6.6m-153 18c1.7.2 4.7.2 6.5 0 1.7-.2.3-.4-3.3-.4s-5 .2-3.2.4"/><path fill="#d4d4d4" d="M122.8 59.7c.7.3 1.6.2 1.9-.1.4-.3-.2-.6-1.3-.5-1.1 0-1.4.3-.6.6"/><path fill="#d40000" d="M199.6 10.7c-.2 1-.7 2.8-1.1 4-.6 2.2-.4 2.3 6.9 2.3 7.8 0 8.2-.2 9.6-5l.9-3H208c-6.6 0-7.9.3-8.4 1.7"/></svg>