<svg xmlns="http://www.w3.org/2000/svg" viewBox="0 0 177 108"><path fill="#05f" d="M75.2 21.2c-2 2.5-2.4 8.3-.8 12.1.8 2.1 1.6 3.7 1.8 3.7s.3-3.8.3-8.5-.1-8.5-.1-8.5c-.1 0-.6.6-1.2 1.2"/><path fill="#00f" d="M76.4 22.4c-.3 1.5-.4 5.3-.2 8.6.5 6.5-.5 7-2.3 1.2-.8-2.8-.8-4.9 0-7.7l1-3.9-2 2.1c-1.9 1.9-2.1 3.1-2 14.9.2 11.8.4 13.1 2.4 15.3 3.2 3.5 9.5 6.1 15 6.1 7.9 0 8.7-.8 8.7-9.6 0-6.9-.2-7.5-1.7-6.9-6.8 2.8-17.2.2-16.5-4 .2-1.1.6-5.2.9-9 .4-5.7.2-7.4-1.1-8.4-1.3-1.1-1.6-.9-2.2 1.3"/><path fill="#5500d4" d="M99.5 28.9c0 7.9.2 8.8 1.5 7.6 2.5-2.2 1.8-16.5-.8-16.5-.4 0-.7 4-.7 8.9m3.8-.4c0 2.2.2 3 .4 1.7.2-1.2.2-3 0-4-.3-.9-.5.1-.4 2.3"/><path fill="#0000d4" d="M97.4 22.5c-.9 2.3.1 14.4 1.2 15.5q1.05 1.05 3-1.2c1.5-1.8 1.5-2 .2-.9-1.7 1.3-1.8.8-1.8-6.8 0-4.9-.4-8.1-1-8.1s-1.3.7-1.6 1.5m-29 7c-2 4.8-1.7 12.2.6 17l2 4-.1-12.3c-.1-6.7-.3-12.2-.6-12.2-.2 0-1.1 1.6-1.9 3.5m40.9 8.5c0 2.5.2 3.5.4 2.2.2-1.2.2-3.2 0-4.5-.2-1.2-.4-.2-.4 2.3m-10.6 4.1c.4 1.3.8 1.8 1.1 1 .2-.7-.1-1.8-.6-2.3-.8-.8-.9-.4-.5 1.3m1.5 5.9c0 1.9.2 2.7.5 1.7.2-.9.2-2.5 0-3.5-.3-.9-.5-.1-.5 1.8m-3.3 8.7c-1.3 1.6-1.2 1.7.4.4s2.1-2.1 1.3-2.1c-.2 0-1 .8-1.7 1.7"/><path fill="#00a" d="M103.5 28.4c0 5.2-.4 6.9-2.2 8.8-2 2.1-2.1 2.7-1.1 7 .9 3.9.8 5.5-.5 8.8-1.4 3.7-1.4 3.9.1 3.1 2.3-1.2 6.7-6.1 8.2-9 .6-1.3 1.2-5.6 1.3-9.7 0-6.3-.3-7.9-2.7-11.4-1.4-2.2-2.7-4-2.9-4-.1 0-.2 2.9-.2 6.4"/><path fill="#50f" d="M102.3 28.5c0 2.7.2 3.8.4 2.2.2-1.5.2-3.7 0-5-.2-1.2-.4 0-.4 2.8M97 48.7c.1 7.3.2 7.6 1.5 5.3 1.5-2.6 1.9-7 .9-10.8-1.3-4.6-2.4-1.9-2.4 5.5"/><path d="M73.7 65.6c-1.1 1.1-.9 9.4.3 9.4.6 0 1-1.1 1-2.5s.4-2.5.8-2.5c.5 0 1.4 1.1 2 2.5 2 4.2 4.2 3.2 4.2-2 0-2.5-.4-4.5-1-4.5-.5 0-1 1.2-1 2.7v2.7l-2.8-3.3c-1.5-1.8-3-2.9-3.5-2.5m-11.5 4c.4 4.4 3.2 6.7 6.6 5.3 1.8-.7 2.2-1.6 2.2-4.9 0-2.2-.4-4-1-4-.5 0-1 1.6-1 3.5 0 2.8-.4 3.5-2 3.5s-2-.7-2-3.5c0-2.5-.4-3.5-1.6-3.5-1.1 0-1.4.9-1.2 3.6m21.8.9c0 2.5.5 4.5 1 4.5.6 0 1-2 1-4.5s-.4-4.5-1-4.5c-.5 0-1 2-1 4.5m4.3-3.4c1.1.6 1.7 2.2 1.7 4.4 0 2.4.5 3.5 1.5 3.5s1.5-1 1.5-3.3c0-1.8.5-3.8 1.2-4.5.9-.9.2-1.2-3.2-1.2-3.6.1-4.1.3-2.7 1.1m8.1.3c-.3.8-.4 2.7-.2 4.3.3 2.5.8 2.8 4.2 3.1 2.5.2 3.6 0 3.1-.7-.3-.6-1.5-1.1-2.6-1.1-1 0-1.9-.5-1.9-1 0-.6 1-1 2.2-1s1.8-.3 1.4-.8c-.4-.4-1.3-.7-1.8-.7-2.5 0-1.7-2.4.9-2.8 2.3-.3 2.1-.4-1-.6-2.4 0-4 .4-4.3 1.3m8.8 2.8c.2 3.2.8 4.4 2.1 4.6 5.3 1 8.9-2.6 6.7-6.8-.8-1.5-2.1-2-5.1-2h-4zm6.8.3c0 1.8-.5 2.5-2 2.5s-2-.7-2-2.5.5-2.5 2-2.5 2 .7 2 2.5m-36.9 9.4c-1.6 2.9-1.4 4.6.9 6.6 2 1.9 7 1.4 7-.6 0-.7-1-.9-2.4-.5-2.8.7-5.1-1.5-4.2-4 .5-1.2 1.4-1.5 3.7-1 2.2.4 2.9.2 2.7-.7-.3-.6-1.9-1.3-3.6-1.5-2.2-.2-3.4.2-4.1 1.7m8.9 1.5c0 5.4 4.6 8.6 7.8 5.4 1.4-1.4 1.6-8.8.2-8.8-.5 0-1 1.5-1 3.4s-.5 3.8-1.2 4.2c-1.4.9-3.8-2.3-3.8-5.3 0-1.3-.4-2.3-1-2.3-.5 0-1 1.5-1 3.4M95 83c0 2.7.5 5 1 5 .6 0 1-.6 1-1.4s1-1.6 2.1-1.8c5.5-.8 4.4-6.8-1.2-6.8-2.8 0-2.9.2-2.9 5m5.3-1.5c.1.5-.6 1.1-1.5 1.3-1.1.2-1.8-.3-1.8-1.3 0-1.7 3-1.8 3.3 0"/></svg>