<svg xmlns="http://www.w3.org/2000/svg" viewBox="0 0 1142 563"><path fill="#aaa" d="M421.8 100.2c-2.1 1.8-5.8 7.4-5.8 8.8 0 .7 8.8 16.5 19.6 35.2l19.7 34 3.1-.5c1.7-.3 10.4-1.5 19.4-2.8 8.9-1.3 16.2-2.7 16.2-3.1 0-.5-9.3-17.1-20.7-36.8l-20.8-36H438c-10.2 0-15.1.4-16.2 1.2m193.2-.7c0 .2 7.3 13 16.2 28.5 11.7 20.3 16.6 28 17.9 28 3.7 0 48.3-3.1 48.6-3.3.1-.2-6.3-11.8-14.4-25.8-8-13.9-14.6-26-14.6-26.6 0-1-6-1.3-26.9-1.3-14.7 0-26.8.2-26.8.5m97.6.3c.6.4 7.1 11 14.4 23.7 7.3 12.6 13.4 23.2 13.7 23.4.2.3.8 0 1.3-.5 1.3-1.3 13.1-45.5 12.4-46.5-.3-.5-10.1-.9-21.7-.9-11.7 0-20.7.4-20.1.8m59.8 0c-1 .7-14.7 50.3-14 50.9.2.2 15.2.2 33.4.1l33.2-.3-14.7-25.7-14.8-25.7-11-.1c-6 0-11.5.4-12.1.8m-396.2 65.9c-15.3 22.4-18 26.9-16.9 28.1 1.2 1.1 4.7.7 22.3-2.7 11.5-2.2 25.3-4.9 30.7-5.8l9.7-1.8-12.7-22.2c-7.1-12.3-13.2-22.3-13.8-22.3-.5 0-9.2 12-19.3 26.7M812.9 203l-39.7.5 16.7 28.9 16.6 28.8 25-.5c24.9-.5 31-1.2 46.3-5.3 4.3-1.2 6.1-2.1 5.8-3-1.2-3.1-28-49-29-49.6-.6-.4-1.3-.7-1.6-.6-.3.2-18.3.5-40.1.8m-315.4 19c-7.1 1-13.3 1.9-13.7 1.9-.5.1-.8.6-.8 1.3 0 .9 41.2 73.1 42.6 74.7 1.2 1.4.6-4.1-4.7-38.9-3.2-21.2-5.9-39.1-5.9-39.8 0-1.5-1.1-1.4-17.5.8m240.5 2.6c0 .3-3.6 14-8.1 30.5l-8 30 10.3 17.9 10.3 18h44.3l.8-4.3c.5-2.3.9-5 .9-5.9 0-1.9-48.6-86.8-49.7-86.8-.5 0-.8.3-.8.6m-299 5.5c-3 .5-15.8 2.5-28.5 4.5-12.6 2-23.4 4-23.8 4.4-.5.4 4.6 10.3 11.4 21.9l12.2 21.1h17.8c17.7 0 17.9 0 18.3 2.2.3 1.3 1.2 8.4 2.1 15.8s1.8 15.2 2.1 17.2l.6 3.8h25c13.7 0 24.8-.4 24.6-.8-.1-.5-12-21.2-26.3-46-21-36.5-26.4-45.1-28-45.1-1.1.1-4.5.5-7.5 1m122.2 75.4c-1.8 6.9-3.5 13.2-3.8 14-.5 1.3 1.1 1.5 11 1.5 6.4 0 11.6-.2 11.6-.5 0-.5-14.8-26.6-15.4-27.2-.1-.1-1.6 5.4-3.4 12.2m199 42.1c7.6 14 30.3 52.4 30.9 52.4 2.9 0 3.4-25.7.6-33.7-2.3-6.5-8.4-13.4-14.3-16.2-4.7-2.2-18.1-4.2-17.2-2.5m-113.7 2.6c-.3.7-3.2 11.4-6.5 23.7-4.1 15.5-5.6 22.7-4.9 23.2.6.4 2.4 2.8 3.9 5.3l2.7 4.7 7.9.2c9 .2 14.2 2.3 17.5 6.9 4.4 6.2 3.5 14.3-2.7 22.3l-3.3 4.4 3.9 6.7c2.1 3.7 4.3 7.1 4.7 7.5 1.2 1.2 9.9-5.6 13.8-10.9 5.8-7.8 7.9-14.4 7.9-24.7 0-7.3-.4-9.8-2.1-13-5-9.5-13.8-14.4-27-15.3-4.6-.2-8.3-.5-8.3-.6s1.5-5.3 3.3-11.6l3.2-11.5 20.4-.5 20.4-.5 1.7-6c.9-3.3 2-7.2 2.4-8.8l.6-2.7h-29.5c-22.7 0-29.7.3-30 1.2m189.9 2.8c-11.4 6.7-20 16.8-27.4 32.1-4.5 9.5-9.4 27.1-8.5 30.9.9 3.6 25.7 46.9 27.3 47.5 2.7 1 14.8-1.7 21.2-4.7 4.6-2.2 8.8-5.5 14.5-11.2 6.7-6.7 9-9.9 13.5-18.9 3.4-6.8 5.1-11.1 4.4-11.5-1.3-.9-13.4-22-13.5-23.5 0-.7-1.3 4-2.9 10.3-6.4 25.3-18.6 41-31.8 41-11.8 0-15.9-16.8-9.8-40.3 4.5-17.4 12.8-31 22.4-36.8 2-1.2 3.9-2.4 4.2-2.6.5-.5-7.2-15.3-8-15.3-.3 0-2.8 1.4-5.6 3m-115.8 20.6c-2.7 2.6-9.4 17.4-12 26.4-5 17.6-5.6 34.6-1.4 45.7 7.1 19.1 32.5 23.6 53.3 9.3 6.8-4.7 7.2-6 3.4-12.8-5.4-9.6-5.5-9.7-9.5-5.2-2 2.1-5.4 4.8-7.8 5.9-8.3 4.1-15 2.1-18.6-5.5-2.1-4.2-2.2-5.6-1.7-15.7.4-8 1.3-13.8 3.2-20.2 1.5-5 2.8-9.9 3.1-10.9.3-1.9-8.4-18.5-9.8-18.6-.4 0-1.4.7-2.2 1.6"/><path fill="gray" d="M453.2 99.9c.2.5 9.5 16.9 20.8 36.5l20.5 35.7 6-.6c3.3-.4 6.2-.8 6.4-1 .4-.5-9.9-69.7-10.6-70.8-.6-1-43.5-.9-43.1.2m110.8-.3c0 .4 33.8 59.3 34.6 60.3.4.5 43.4-3 46.2-3.8 2.1-.6 1.4-2.1-14-28.9L614.5 99h-25.2c-13.9 0-25.3.3-25.3.6m232 0c0 .3 6.6 12 14.6 25.9l14.5 25.2 5.2.7c2.9.3 10.5.6 16.9.6 17.4 0 26 2.3 32 8.7 6.7 7.1 6.4 17-.9 27.6-3.4 4.8-12.8 11.1-19.3 12.8-2.7.7-4.6 1.5-4.2 1.8.5.3 7.3 11.7 15.1 25.3 7.9 13.7 14.8 24.8 15.4 24.8 2.6 0 21.6-10.2 28-15 10.2-7.8 21.5-21.9 23.2-29 .4-2-5.3-12.6-29.5-54.5-16.5-28.5-30.6-52.3-31.5-52.7-2.6-1.5-26.4-2.7-53.2-2.8-14.5 0-26.3.3-26.3.6m-261.7 63.5c-.9 3.1-.8 3.4 1.5 3.7 3.4.5 3.7-.3 1.4-3.9l-2-3.3zm-177.7 31.4c-.4 1.2-.1 1.6 1.1 1.3 1.8-.3 2.1-2 .5-2.6-.5-.1-1.2.4-1.6 1.3M641 207.3c-7.4.5-13.7 1.1-13.8 1.2-.4.4 19.6 35.5 22.1 38.9 1.2 1.6 1.9-.5 6.6-18 2.9-11 5.4-20.7 5.7-21.7.6-2 .9-2-20.6-.4m-61.5 29.9c-2.1 6.2-14.5 54.7-14.3 55.8.2.9 3.7 7.5 7.8 14.8l7.5 13.2h23.8c13 0 23.7-.2 23.7-.4s-10.6-18.8-23.6-41.3c-13-22.4-23.7-41.4-23.7-42.1 0-.6-.2-1.2-.4-1.2s-.6.6-.8 1.2M381 239.6c-.8.2-11.6 2.2-24 4.4-29.4 5.4-32.5 6.1-31.2 6.9.5.3 8.3 13.3 17.2 28.9l16.3 28.2 8.3-12.7 8.3-12.8 17-.5 17.1-.5-12.3-21.2c-7.7-13.4-12.8-21.2-13.7-21.2-.8.1-2.2.3-3 .5m336 63.7-4.6 17.2 14.5.3c7.9.1 14.6.1 14.8-.2.5-.5-18.9-34.6-19.7-34.6-.3 0-2.5 7.8-5 17.3m131.5 44.8c-2.2.5-4.3 1.3-4.8 1.8s.9 4.2 3 8.2c3.6 7.1 4 7.4 7.4 7.4 8.2.1 12.9 7.3 13.4 20.9.2 7.9.4 8.3 6.6 19.3 3.5 6.2 7 11.3 7.7 11.3.6 0 1.1-.3 1-.8 0-.4.2-1.4.5-2.2 1.5-3.5 3.7-14.2 4.8-22.7 2-15.7-1.3-29.5-8.8-36.5-6.5-6.2-20.6-9.3-30.8-6.7m-214.6 49.3c-.2 1-.5 1.9-1.8 6.5-.7 2.3-1 4.5-.8 4.8.3.2 2.8.1 5.6-.3l5.1-.7-2.9-5.1c-2.7-4.5-4.9-6.8-5.2-5.2M617 446.1c-2.7 10.6-2.8 10.3 6.7 13.9 13.5 5 27.1 4.6 42.1-1.5 2.3-.9 4.2-1.9 4.2-2.1s-2-3.8-4.5-8-4.3-8-4-8.4c.3-.5-1.6.3-4.2 1.8-4.2 2.4-5.9 2.7-13.8 2.7-8.3 0-9.6-.3-16-3.5-3.9-1.9-7.3-3.6-7.6-3.8-.3-.1-1.6 3.9-2.9 8.9"/><path fill="#555" d="M551.6 99.9c-.3.4-4.1 14-8.5 30.2l-7.9 29.4 2.1 3.7c1.7 2.8 2.7 3.6 4.2 3.3 2.9-.7 48.9-5.5 52.4-5.5 1.6 0 3.2-.4 3.6-1 .3-.5-7.2-14.4-16.7-30.9L563.5 99h-5.7c-3.1 0-5.9.4-6.2.9m324.6 2.3c.8.7 10.4 16.8 21.3 35.8 11 19 24.5 42.5 30.1 52.2l10.2 17.7 2.1-5.7c3.9-10.8 5.4-19.2 5.5-32.2.1-20.9-4.5-33.1-17.4-46-10.9-10.9-25.2-17.9-44.3-21.5-9.6-1.8-9.5-1.8-7.5-.3M603 210.5c-6.9.8-13.5 1.4-14.6 1.4-1.9.1-2.5 1.6-5.2 11.6-1.7 6.3-2.9 12.2-2.8 13.1s11 20.2 24.2 43c15.9 27.6 24.4 41.4 25.3 41.2 1.4-.3 9.3-27.5 17.7-60.8l2.6-10.6-11.5-19.9-11.6-20-5.8-.1c-3.2-.1-11.4.4-18.3 1.1m-299.5 44.1c-27.3 6-65.2 15.4-87.5 21.7l-18.5 5.2 49.2.5 49.3.5-11.5 16.7c-6.2 9.2-12.1 17.8-13.1 19.2l-1.6 2.6h81l4.2-6.4c3.7-5.7 4-6.7 2.9-8.8-4.5-8.7-31.4-54.4-32.3-55-.6-.4-1.3-.7-1.6-.7-.3.1-9.5 2.1-20.5 4.5"/><path fill="#d4d4d4" d="M668.6 99.8c-.2.4 6.3 12.6 14.6 27l15 26.1 19.7-.5c23.4-.6 23.7-.7 24.3-3.8.3-1.5.1-2.3-.6-2-.6.2-6.9-9.8-14.1-22.3-7.1-12.4-13.6-23.2-14.3-24-1-1-6.1-1.3-22.7-1.3-11.8 0-21.6.4-21.9.8m-263.4 23.9c-5.6 8.1-9.8 14.9-9.3 15.2.4.4 6.5 10.5 13.5 22.7l12.7 22.1 16-2.7c8.7-1.5 16.1-2.9 16.4-3.1.2-.3-4.7-9.2-10.9-19.9s-15.1-26.1-19.8-34.3l-8.5-14.7zm337.2 85c-.8 3.2-2.2 7.9-2.9 10.5-.8 2.6-1 4.8-.6 5 1.1.4 49.3 84 49.4 85.6.1 3.5 1.9-2.3 7.8-24.5 5.3-20 6.7-24.3 8.2-24.3.9 0 1.7-.2 1.7-.4s-7.4-13.1-16.4-28.7l-16.4-28.4-14.6-.3-14.5-.3zm-277.6 17.7c-8.1 1.1-15 2.4-15.3 2.8-.4.3 11.2 21.1 25.6 46.2l26.3 45.6h28.8l-.5-2.3c-.3-1.2-1.1-5.8-1.7-10.2-.7-4.4-1.5-8.2-2-8.5-1.2-.8-43-73.6-43-74.8 0-1.5-.1-1.5-18.2 1.2M754 348c-9.5 2.3-21.6 10.2-27.9 18.1-5.7 7.2-5.5 7-4 6.4 1.6-.5 11.4 15.9 10.4 17.5-.3.5-.4 1-.1 1s1.9-2.6 3.5-5.8c6.3-12.5 17.6-21.1 25.6-19.6 7.8 1.4 12.4 12 11 25.3-1.2 11.1-5.1 24.6-9.9 33.8-3.8 7.4-4.3 9-3.2 10.3 3 3.5 7.7 13.1 7 14.2-.4.7 1-.3 3.1-2.2 8.4-7.8 16.8-23.8 21-39.9 1.4-5.4 1.4-6.5.2-7.5-.8-.6-8.1-12.7-16.2-26.9-8.1-14.1-15.3-25.7-15.9-25.6s-2.7.5-4.6.9m45.5 72.4c-2.1 13.9 2.2 29.6 9.8 36.1 4.9 4.2 16.7 8.4 16.7 5.9 0-.3-5.2-9.5-11.6-20.5-6.4-11.1-12.2-21.5-12.9-23.2l-1.3-3.2z"/></svg>