<svg xmlns="http://www.w3.org/2000/svg" viewBox="0 0 1142 563"><path d="M421.8 100.2c-1.8 1.5-66 94.9-65.5 95.4.2.2 10.5-1.7 22.9-4.1 26.3-5.2 79.6-14.1 108.1-18.1 11.8-1.6 19.7-3.2 19.7-3.8 0-1.9-10-68-10.5-69.4-.3-.9-8.6-1.2-36.8-1.2-27.5 0-36.7.3-37.9 1.2m129.5.5c-2.3 5.8-17.9 65.9-17.2 66.1.5.2 11.1-.8 23.6-2.2 57.4-6.4 140.7-12.6 170.8-12.6 6.1 0 11.5-.4 12.1-.8 1.3-.9 14.6-50.1 13.8-51.3-.3-.5-46-.9-101.5-.9-95.2 0-101 .1-101.6 1.7m221.1-.9c-.6.4-3.8 11.3-7.3 24.2-3.4 12.9-6.4 24.2-6.7 25.1-.4 1.4 4.5 1.6 49.8 2.2 32.7.4 52.2 1 55.8 1.8 17.2 3.7 24.2 15.4 17.6 29.6-4.5 9.6-14.8 17.1-26.5 19.3-3.2.6-26.7 1-58.2 1h-52.8l-1.5 5.2c-.9 2.9-7.9 28.9-15.6 57.8s-14.2 53.1-14.5 53.7c-.3 1 7.4 1.3 36.8 1.3h37.2l8-29.9 8-29.9 27-.5c21.6-.4 28.9-.9 36.5-2.5 50.8-10.6 79.1-42.2 79.4-88.2.1-20.9-4.5-33.1-17.4-46-14.8-14.9-33.7-21.7-66.5-24-16.1-1.1-87.5-1.3-89.1-.2M643.5 207.1c-17.2 1.4-56.9 5-57.1 5.2-.2.1-6.6 23.8-14.3 52.7-7.8 28.8-14.4 53.3-14.7 54.2-.5 1.7 1.3 1.8 36.7 1.6l37.3-.3L646 266c8.1-30 15-55.7 15.4-57.3.7-3.1 1.4-3.1-17.9-1.6M500 221.6c-113.7 15.1-207.5 33.1-284 54.7l-18.5 5.2 49.2.5 49.3.5-11.5 16.7c-6.2 9.2-12.1 17.8-13.1 19.2l-1.6 2.6h81l12.7-19.5 12.7-19.5H446l.4 2.2c.3 1.3 1.2 8.4 2.1 15.8s1.8 15.2 2.1 17.2l.6 3.8h79l-.6-2.8c-.7-3.2-14.6-96-14.6-97.3 0-1.1-1.8-1-15 .7m170.4 126.8c-5.7 1.3-16 5.1-17.7 6.6-.8.7-5.9 19.1-5.5 19.6.2.1 3.5-1.3 7.3-3.1 20.2-9.9 35.5-6.2 35.5 8.6 0 14.5-21.5 37.6-57 61.3l-8.6 5.6-1.8 6.7c-1 3.7-1.3 7-.8 7.5.4.4 16.3.7 35.2.6l34.5-.3 1.7-6.2c.9-3.5 1.9-7.6 2.3-9.3l.6-3-19.1-.2-19.2-.3 9.2-6.9c11.3-8.5 27.4-23.8 33.7-32 21-27.7 13.3-54.9-15.9-56.2-4.9-.2-10.8.2-14.4 1m176.7.1c-20.3 5.7-37.2 26.5-44.7 55-2.2 8.2-2.7 12.4-2.8 23.5-.1 12.9 0 13.8 2.8 19.8 4.5 9.7 10.9 14.4 22.2 16.2 13.3 2.2 26.7-3.1 38.9-15.4 7-7 8.9-9.7 13.8-19.6 6-12.4 8.9-22.1 10.8-36.7 2-15.6-1.3-29.5-8.8-36.5-7-6.6-21.1-9.4-32.2-6.3m13.7 19.1c6.9 4.5 8.4 19.7 3.8 37.9-4.7 18.3-14.6 34.1-24 38-12.7 5.3-20.3-2.6-19.9-20.5.4-18.5 8.2-39.1 18.8-49.7 8.3-8.2 14.7-10 21.3-5.7m-120.4-15.9c-.4 1.6-4 14.9-8 29.8-4 14.8-7.1 27.1-6.9 27.3s3.8-.1 8-.7c14-2 20.2-1 25.9 4 7.6 6.6 6.2 19.2-3.1 26.8-9 7.4-22.8 8.1-34.8 1.8-3.8-2-7.1-3.5-7.3-3.2-.3.3-1.6 4.4-2.9 9.2-2.7 10.2-2.8 9.8 6.5 13.3 15.2 5.7 33.2 4.1 47.5-4.3 6.1-3.6 14.4-12.8 17.5-19.4 3.6-8 4.4-21.9 1.5-28.4-4.8-10.7-13-15.8-26.8-16.7-4.7-.2-8.5-.9-8.5-1.4 0-.7 3.6-14.2 5.6-21.1.5-1.5 2.4-1.7 20.8-1.7h20.3l2.1-7.9c1.2-4.3 2.2-8.3 2.2-9 0-.8-8.2-1.1-29.5-1.1H741z"/></svg>