<svg width="148" height="40" viewBox="0 0 148 40" fill="none" xmlns="http://www.w3.org/2000/svg"><g clip-path="url(#clip0_8989_6589)"><rect x="-0.100586" width="148" height="40" rx="4" fill="#2D0046"/><path d="M69.6955 7.22925C67.4561 7.22925 65.4775 8.68864 64.8189 10.8273L58.0591 32.772H64.7416L66.5724 26.8268C68.5289 27.9576 70.1291 29.8684 70.8291 32.772H77.1996V7.22925H69.6955ZM67.1785 24.8565L70.8277 13.0102V26.0343C69.603 25.3853 68.3149 25.0153 67.1785 24.8565Z" fill="#FAFAF5"/><path d="M37.9811 7.22925L31.895 26.9883V7.22925H24.3923C22.1514 7.22925 20.1743 8.68864 19.5143 10.8273L14.5355 26.9883V7.22925H8.16504V32.772H15.6677C17.9086 32.772 19.8857 31.3126 20.5457 29.174L25.5245 13.013V32.772H33.0271C35.268 32.772 37.2452 31.3126 37.9051 29.174L44.665 7.22925H37.9811Z" fill="#FAFAF5"/><path d="M63.8689 7.22925H46.7332L44.9507 13.0143H50.2774L44.1899 32.772H50.6488L56.7363 13.0143H62.0878L63.8689 7.22925Z" fill="#FAFAF5"/><path d="M135.209 33.37C131.953 33.37 130.769 30.891 131.102 25.008H133.285C133.063 29.707 133.507 31.224 135.246 31.224C136.615 31.224 137.355 30.299 137.355 28.264V27.857C137.355 24.416 135.912 22.418 134.358 20.42C132.767 18.348 131.176 15.832 131.176 12.428V11.503C131.176 8.43198 132.841 6.72998 135.468 6.72998C138.576 6.72998 139.834 9.09798 139.575 14.389H137.392C137.577 10.097 136.874 8.87598 135.357 8.87598C134.062 8.87598 133.322 9.72698 133.322 11.762V12.058C133.322 15.018 134.728 16.979 136.171 18.792C137.91 21.049 139.612 23.491 139.612 27.487V28.486C139.612 31.742 137.799 33.37 135.209 33.37Z" fill="white"/><path d="M122.194 33V7.09998H124.451V30.854H129.816V33H122.194Z" fill="white"/><path d="M111.047 33L114.525 6.98895H117.152L120.593 33H118.336L117.707 27.82H113.896L113.304 33H111.047ZM114.155 25.674H117.448L115.783 11.836H115.746L114.155 25.674Z" fill="white"/><path d="M100.64 33V7.09998H102.823L107.152 24.786H107.226V7.09998H109.446V33H107.152L102.934 15.832H102.86V33H100.64Z" fill="white"/><path d="M95.4492 33V7.09998H97.7432V33H95.4492Z" fill="white"/><path d="M85.5542 33V7.09998H93.1762V9.24598H87.8112V19.014H92.9172V21.16H87.8112V33H85.5542Z" fill="white"/></g><defs><clipPath id="clip0_8989_6589"><rect width="148" height="40" fill="white"/></clipPath></defs></svg>